<svg width="100" height="40" viewBox="0 0 100 40" fill="none" xmlns="http://www.w3.org/2000/svg">
<path fill-rule="evenodd" clip-rule="evenodd" d="M4.8848 21.9355H0.328248C0.0998279 21.9355 0 22.0365 0 22.262V24.8297H4.83404C7.16223 24.8297 8.40246 25.9874 8.40246 27.7492C8.40246 29.5109 7.27559 30.6013 5.0743 30.6854V33.5846C9.65116 33.5156 12.377 31.2676 12.377 27.7492C12.377 24.2307 9.49042 21.9355 4.8848 21.9355ZM32.7326 21.9355H29.661C29.4573 21.9355 29.3317 22.0364 29.3317 22.2615V31.0627C29.3317 32.0826 30.1667 32.9093 31.1968 32.9093C32.2269 32.9093 33.0618 32.0826 33.0618 31.0627V22.2615C33.0618 22.0599 32.96 21.9355 32.7326 21.9355ZM23.3484 26.4091H26.2646C26.4596 26.4091 26.6189 26.5658 26.6189 26.7614V39.4202C26.6189 39.6461 26.468 39.7472 26.29 39.7472H23.3484C23.1212 39.7472 22.994 39.6225 22.994 39.4202V37.3014C22.1564 39.0915 20.4067 40.0001 18.6824 40.0001C15.8849 40.0001 13.3756 37.7683 12.8856 34.3095H16.5156C16.9242 36.0204 18.1823 37.0486 19.6963 37.0486C21.5732 37.0486 23.0194 35.4843 23.0194 33.0655C23.0194 30.6467 21.5986 29.133 19.6963 29.133C18.1992 29.133 17.0039 30.0702 16.5614 31.6496C16.3444 32.4216 15.6441 32.9627 14.8371 32.9627C13.6621 32.9627 12.794 31.8502 13.1094 30.7259C13.9012 27.9059 16.1223 26.1562 18.7333 26.1562C20.4321 26.1562 22.1327 26.9889 22.994 28.7537V26.7614C22.994 26.5102 23.1449 26.4091 23.3484 26.4091ZM48.4753 26.4091H45.5591C45.3556 26.4091 45.2047 26.5102 45.2047 26.7614V28.7537C44.3434 26.9889 42.6429 26.1562 40.944 26.1562C38.333 26.1562 36.1119 27.9059 35.3201 30.7259C35.0048 31.8502 35.8729 32.9627 37.0478 32.9627C37.8549 32.9627 38.5551 32.4216 38.7721 31.6496C39.2146 30.0702 40.4099 29.133 41.9071 29.133C43.8094 29.133 45.2302 30.6467 45.2302 33.0655C45.2302 35.4843 43.7839 37.0486 41.9071 37.0486C40.393 37.0486 39.1349 36.0204 38.7263 34.3095H35.0963C35.5863 37.7683 38.0956 40.0001 40.8932 40.0001C42.6175 40.0001 44.3672 39.0915 45.2047 37.3014V39.4202C45.2047 39.6225 45.3319 39.7472 45.5591 39.7472H48.5008C48.6788 39.7472 48.8297 39.6461 48.8297 39.4202V26.7614C48.8297 26.5658 48.6703 26.4091 48.4753 26.4091ZM87.1322 26.4091H84.2159C84.0125 26.4091 83.8616 26.5102 83.8616 26.7614V28.7537C83.0003 26.9889 81.2997 26.1562 79.6009 26.1562C76.9898 26.1562 74.7688 27.9059 73.977 30.7259C73.6616 31.8502 74.5297 32.9627 75.7047 32.9627C76.5117 32.9627 77.2119 32.4216 77.429 31.6496C77.8715 30.0702 79.0668 29.133 80.5639 29.133C82.4662 29.133 83.887 30.6467 83.887 33.0655C83.887 35.4843 82.4408 37.0486 80.5639 37.0486C79.0498 37.0486 77.7918 36.0204 77.3832 34.3095H73.7532C74.2432 37.7683 76.7525 40.0001 79.55 40.0001C81.2743 40.0001 83.024 39.0915 83.8616 37.3014V39.4202C83.8616 39.6225 83.9887 39.7472 84.2159 39.7472H87.1576C87.3356 39.7472 87.4865 39.6461 87.4865 39.4202V26.7614C87.4865 26.5658 87.3271 26.4091 87.1322 26.4091ZM29.6625 39.6624C29.4352 39.6624 29.3334 39.539 29.3334 39.339H29.3317V34.26H33.0618V39.339C33.0618 39.5624 32.9363 39.6624 32.7327 39.6624H29.6625ZM62.8879 26.3268H60.376C60.1492 26.3268 60.0248 26.4287 59.9744 26.6564L57.4154 33.1617C57.2693 33.5321 57.2709 33.9466 57.4205 34.3153C57.9397 35.5997 59.7425 35.5895 60.2483 34.3L63.1887 26.8076C63.3147 26.5035 63.2139 26.3251 62.8879 26.3251V26.3268ZM50.0278 26.3251H52.7508H52.7525C52.9805 26.3251 53.1082 26.4496 53.1847 26.6515L58.3243 39.5177C58.2392 39.612 58.1201 39.6624 57.9636 39.6624H55.1963C54.9683 39.6624 54.8151 39.5379 54.7385 39.3613L49.7232 26.7777C49.5955 26.4513 49.747 26.3251 50.0278 26.3251ZM72.8664 26.1578C70.4782 26.2834 68.8698 27.6117 68.09 30.2415V26.7591C68.09 26.533 67.9891 26.409 67.7387 26.409H64.9488C64.722 26.409 64.5976 26.5095 64.5976 26.7591V32.2482C64.5976 33.3588 65.5018 34.2599 66.616 34.2599C67.5185 34.2599 68.295 33.6586 68.5572 32.7976C68.9589 31.4861 69.7706 30.6921 70.9319 30.3169C71.5101 30.1159 72.2143 29.9668 72.9437 29.9668C73.1454 29.9668 73.2445 29.9165 73.2445 29.6418V26.4844C73.2445 26.2583 73.1437 26.1343 72.868 26.1594L72.8664 26.1578ZM64.5976 36.9194C64.5976 35.9173 65.4327 35.1045 66.4626 35.1041C67.4926 35.1045 68.3276 35.9173 68.3276 36.9194V39.315C68.3276 39.5627 68.1756 39.6624 67.9449 39.6624H64.9547C64.7582 39.6624 64.5976 39.5078 64.5976 39.315V36.9194ZM0 27.9314C0 26.8584 0.873268 25.9879 1.9498 25.9874C3.02632 25.9879 3.89959 26.8584 3.89959 27.9314V39.4786C3.89959 39.6726 3.74212 39.8312 3.5457 39.8312H0.328494C0.101596 39.8312 0 39.7064 0 39.5039V27.9314ZM96.9696 32.2015C96.3533 31.933 95.6322 32.0689 95.1548 32.5406C94.459 33.2305 94.5115 34.3954 95.3088 34.9678C95.622 35.1927 95.7828 35.4663 95.7828 35.8557C95.7828 36.7856 94.9466 37.2875 93.4534 37.2875C92.2887 37.2875 90.7939 36.9619 89.6546 36.2334C89.4514 36.1075 89.3515 36.1327 89.3515 36.3845V38.7949C89.3515 38.9963 89.4277 39.0718 89.5801 39.1457C90.518 39.6476 92.2142 40.0001 93.7581 40.0001C97.1253 40.0001 99.3548 38.1671 99.3548 35.5553C99.3548 33.7659 98.4 32.8243 96.9712 32.1999L96.9696 32.2015ZM93.295 33.1485C92.8427 33.5944 92.1567 33.7113 91.5808 33.4391H91.5774C90.229 32.8012 89.3515 31.8576 89.3515 30.1525C89.3515 27.6058 91.7078 26.1562 94.723 26.1562C95.9392 26.1562 97.435 26.3817 98.4226 26.7307C98.6004 26.7808 98.6767 26.9294 98.6767 27.0797V29.2023C98.6767 29.528 98.5513 29.5029 98.3226 29.4278C97.4858 29.052 96.2188 28.7531 95.1296 28.7531C93.7371 28.7531 92.9511 29.2274 92.9511 29.9521C92.9511 30.2895 93.0884 30.535 93.3662 30.7437C94.0844 31.2815 94.1132 32.3419 93.4763 32.9698L93.295 33.1485Z" fill="white"/>
<path fill-rule="evenodd" clip-rule="evenodd" d="M3.89513 7.37363C3.69241 8.22136 2.92975 8.8181 2.05743 8.8181L2.05909 8.81977C0.817902 8.81977 -0.0826673 7.64457 0.228046 6.44278C1.28314 2.36036 4.80899 0 8.75355 0C10.2207 0 11.6364 0.2992 12.507 0.646605C12.7297 0.746339 12.8045 0.869341 12.8045 1.09374V3.5555C12.8045 4.0525 12.6051 4.1273 12.183 3.9029C11.3622 3.5289 10.2191 3.2563 9.10082 3.2563C6.57025 3.2563 4.50824 4.79718 3.89513 7.37363ZM9.18288 14.8296C10.4089 14.8296 11.5848 14.5301 12.4613 14.0825C12.9614 13.833 13.137 14.0077 13.137 14.4552V16.8194C13.137 17.0673 13.0383 17.217 12.8376 17.3169C11.8625 17.7661 10.3604 18.1388 8.63425 18.1388C4.36061 18.1388 0.558667 15.2305 0 10.3175H3.86216C4.36396 13.1858 6.55179 14.8296 9.18288 14.8296ZM53.6972 4.74231H50.837C50.6374 4.74231 50.4894 4.842 50.4894 5.08956V7.05342C49.6447 5.31386 47.9768 4.49309 46.3105 4.49309C43.7496 4.49309 41.5712 6.2177 40.7946 8.99734C40.4853 10.1055 41.3368 11.2021 42.4892 11.2021C43.2807 11.2021 43.9675 10.6688 44.1803 9.90783C44.6144 8.35103 45.7867 7.42725 47.2551 7.42725C49.1209 7.42725 50.5144 8.91925 50.5144 11.3035C50.5144 13.6877 49.0959 15.2295 47.2551 15.2295C45.7701 15.2295 44.5362 14.216 44.1354 12.5296H40.5751C41.0557 15.939 43.5168 18.1388 46.2607 18.1388C47.9518 18.1388 49.668 17.2432 50.4894 15.4787V17.5672C50.4894 17.7666 50.6142 17.8895 50.837 17.8895H53.7222C53.8968 17.8895 54.0448 17.7899 54.0448 17.5672V5.09122C54.0448 4.89849 53.8884 4.74397 53.6972 4.74397V4.74231ZM24.5629 4.74231H27.4231V4.74397C27.6144 4.74397 27.7707 4.89849 27.7707 5.09122V17.5672C27.7707 17.7899 27.6227 17.8895 27.4481 17.8895H24.5629C24.3401 17.8895 24.2154 17.7666 24.2154 17.5672V15.4787C23.3939 17.2432 21.6778 18.1388 19.9866 18.1388C17.2428 18.1388 14.7817 15.939 14.3011 12.5296H17.8614C18.2621 14.216 19.496 15.2295 20.981 15.2295C22.8219 15.2295 24.2403 13.6877 24.2403 11.3035C24.2403 8.91925 22.8468 7.42725 20.981 7.42725C19.5127 7.42725 18.3403 8.35103 17.9063 9.90783C17.6934 10.6688 17.0066 11.2021 16.2151 11.2021C15.0627 11.2021 14.2113 10.1055 14.5206 8.99734C15.2972 6.2177 17.4756 4.49309 20.0365 4.49309C21.7027 4.49309 23.3706 5.31386 24.2154 7.05342V5.08956C24.2154 4.842 24.3634 4.74231 24.5629 4.74231ZM31.6002 11.1495C32.388 11.1495 33.0961 10.6509 33.3333 9.90709C33.8358 8.34049 35.209 7.39756 36.7995 7.39756C37.6685 7.39756 38.4364 7.59503 39.0815 7.86491C39.4281 8.0377 39.5774 8.0377 39.5774 7.64275V5.42779C39.5774 5.23031 39.4779 5.08386 39.3038 5.0098C38.6089 4.7136 37.4678 4.49309 36.2522 4.49309C33.3631 4.49309 30.839 6.04159 29.8737 8.7272C29.4492 9.90709 30.3348 11.1495 31.5969 11.1495H31.6002ZM36.9227 15.1841C37.8861 15.1841 38.7025 14.9352 39.2958 14.6595H39.2991C39.6197 14.5108 39.7437 14.5108 39.7437 14.9101V17.1089C39.7437 17.2826 39.6693 17.408 39.471 17.5082C38.8529 17.8073 37.9126 18.0579 36.8252 18.108L36.2319 19.1823C37.592 19.2826 38.5555 20.1313 38.5555 21.4062C38.5555 23.0803 37.0235 24.1295 35.0453 24.1295C34.2785 24.1295 33.6108 24.0059 33.1663 23.8054C32.9679 23.7052 32.8936 23.5565 32.8936 23.356V22.1563C32.8936 21.9558 32.9663 21.8807 33.2142 21.9809C33.6587 22.2048 34.1777 22.3552 34.7709 22.3552C35.5626 22.3552 36.1806 22.031 36.1806 21.4062C36.1806 20.8314 35.6369 20.5073 34.7709 20.5073C34.4008 20.5073 33.9546 20.5574 33.6587 20.6326L33.5844 20.5323L34.9445 18.0078C32.3152 17.5433 30.0742 15.5835 29.5999 12.4808H33.3199C33.786 14.2168 35.2535 15.1841 36.9227 15.1841Z" fill="white"/>
<path d="M56.8869 13.49C56.616 13.49 56.4805 13.3545 56.4805 13.0835V10.7319C56.4805 10.4803 56.616 10.3545 56.8869 10.3545H65.045C65.2966 10.3545 65.4224 10.4803 65.4224 10.7319V13.0835C65.4224 13.3545 65.2966 13.49 65.045 13.49H56.8869Z" fill="white"/>
</svg>
