<svg width="38" height="38" viewBox="0 0 38 38" fill="none" xmlns="http://www.w3.org/2000/svg">
<g clip-path="url(#clip0_139_5759)">
<rect x="1" y="1" width="36" height="36" rx="2.13333" fill="#FF8F4D"/>
<rect width="36" height="36" transform="translate(1 1)" fill="white"/>
<rect x="1" y="1" width="12" height="12" fill="white"/>
<path d="M4.66035 9.39996C4.58835 9.39996 4.56435 9.36636 4.58835 9.29916L6.38115 4.38156C6.40995 4.31436 6.45795 4.28076 6.52515 4.28076H7.47555C7.54755 4.28076 7.59555 4.31436 7.61955 4.38156L9.40515 9.29916C9.41475 9.31836 9.41955 9.33276 9.41955 9.34236C9.41955 9.38076 9.39075 9.39996 9.33315 9.39996H8.09475C8.01795 9.39996 7.97235 9.36396 7.95795 9.29196L7.75635 8.60076H6.21555L6.00675 9.29196C5.98755 9.36396 5.94195 9.39996 5.86995 9.39996H4.66035ZM7.47555 7.65036L6.98595 6.00876C6.88035 6.37356 6.71715 6.92076 6.49635 7.65036H7.47555Z" fill="#0D0D0E"/>
<rect x="1" y="13" width="12" height="12" fill="white"/>
<path d="M7.14329 21.4647C6.67289 21.4647 6.24569 21.3567 5.86169 21.1407C5.47769 20.9247 5.17289 20.6199 4.94729 20.2263C4.72649 19.8327 4.61609 19.3815 4.61609 18.8727C4.61609 18.3543 4.73609 17.8935 4.97609 17.4903C5.21609 17.0871 5.54729 16.7751 5.96969 16.5543C6.39209 16.3287 6.86489 16.2159 7.38809 16.2159C7.62809 16.2159 7.88009 16.2423 8.14409 16.2951C8.41289 16.3479 8.64329 16.4199 8.83529 16.5111C8.86889 16.5255 8.89289 16.5471 8.90729 16.5759C8.92649 16.6047 8.93609 16.6359 8.93609 16.6695V17.4759C8.93609 17.5863 8.90009 17.6415 8.82809 17.6415C8.79929 17.6415 8.75369 17.6295 8.69129 17.6055C8.30249 17.4279 7.91369 17.3391 7.52489 17.3391C7.05929 17.3391 6.68969 17.4759 6.41609 17.7495C6.14729 18.0231 6.01289 18.3879 6.01289 18.8439C6.01289 19.1415 6.06569 19.4031 6.17129 19.6287C6.27689 19.8543 6.42329 20.0295 6.61049 20.1543C6.79769 20.2743 7.00649 20.3343 7.23689 20.3343C7.51049 20.3343 7.73849 20.2527 7.92089 20.0895C8.10329 19.9215 8.20409 19.6959 8.22329 19.4127H7.30889C7.23689 19.4127 7.20089 19.3743 7.20089 19.2975V18.5055C7.20089 18.4335 7.23689 18.3975 7.30889 18.3975H9.25289C9.32489 18.3975 9.36809 18.4335 9.38249 18.5055C9.41609 18.6543 9.43289 18.8367 9.43289 19.0527C9.43289 19.5327 9.33689 19.9551 9.14489 20.3199C8.95769 20.6847 8.69129 20.9679 8.34569 21.1695C8.00009 21.3663 7.59929 21.4647 7.14329 21.4647Z" fill="#0D0D0E"/>
<rect x="1" y="25" width="12" height="12" fill="white"/>
<path d="M7.89796 33.4C7.83823 33.4 7.80836 33.364 7.80836 33.292V31.3408H6.42596V33.292C6.42596 33.364 6.39396 33.4 6.32996 33.4H5.29956C5.23983 33.4 5.20996 33.364 5.20996 33.292V28.396C5.20996 28.324 5.23983 28.288 5.29956 28.288H6.32996C6.39396 28.288 6.42596 28.324 6.42596 28.396V30.304H7.80836V28.396C7.80836 28.324 7.83823 28.288 7.89796 28.288H8.93476C8.99876 28.288 9.03076 28.324 9.03076 28.396V33.292C9.03076 33.364 8.99876 33.4 8.93476 33.4H7.89796Z" fill="#0D0D0E"/>
<rect x="13" y="25" width="12" height="12" fill="white"/>
<path d="M16.8508 33.4C16.7836 33.4 16.75 33.364 16.75 33.292V28.396C16.75 28.324 16.7836 28.288 16.8508 28.288H17.6644C17.746 28.288 17.8036 28.3168 17.8372 28.3744L19.8604 31.1608V28.396C19.8604 28.324 19.8964 28.288 19.9684 28.288H21.034C21.106 28.288 21.142 28.324 21.142 28.396V33.292C21.142 33.364 21.106 33.4 21.034 33.4H20.2204C20.1436 33.4 20.0836 33.3712 20.0404 33.3136L18.0244 30.5776V33.292C18.0244 33.364 17.9884 33.4 17.9164 33.4H16.8508Z" fill="#0D0D0E"/>
<rect x="25" y="25" width="12" height="12" fill="white"/>
<path d="M28.6605 33.4C28.5885 33.4 28.5645 33.3664 28.5885 33.2992L30.3813 28.3816C30.4101 28.3144 30.4581 28.2808 30.5253 28.2808H31.4757C31.5477 28.2808 31.5957 28.3144 31.6197 28.3816L33.4053 33.2992C33.4149 33.3184 33.4197 33.3328 33.4197 33.3424C33.4197 33.3808 33.3909 33.4 33.3333 33.4H32.0949C32.0181 33.4 31.9725 33.364 31.9581 33.292L31.7565 32.6008H30.2157L30.0069 33.292C29.9877 33.364 29.9421 33.4 29.8701 33.4H28.6605ZM31.4757 31.6504L30.9861 30.0088C30.8805 30.3736 30.7173 30.9208 30.4965 31.6504H31.4757Z" fill="#0D0D0E"/>
<path d="M25 13H30.5C33.8137 13 36.5 15.6863 36.5 19C36.5 22.3137 33.8137 25 30.5 25H25V13Z" fill="#FF5A67"/>
<path d="M27.9646 21.4C27.8974 21.4 27.8662 21.364 27.871 21.292L28.7422 16.396C28.7566 16.324 28.7998 16.288 28.8718 16.288H29.9302C30.007 16.288 30.0526 16.3216 30.067 16.3888L31.0462 19.492L31.975 16.3888C31.999 16.3216 32.047 16.288 32.119 16.288H33.0838C33.1558 16.288 33.199 16.324 33.2134 16.396L34.1206 21.2848L34.1278 21.3208C34.123 21.3736 34.0918 21.4 34.0342 21.4H32.8678C32.8006 21.4 32.7598 21.364 32.7454 21.292L32.3638 18.34L31.471 21.2632C31.4518 21.3352 31.4062 21.3712 31.3342 21.3712H30.6862C30.6142 21.3712 30.5662 21.3352 30.5422 21.2632L29.6062 18.376L29.1598 21.292C29.155 21.364 29.1142 21.4 29.0374 21.4H27.9646Z" fill="white"/>
<rect x="25" y="1" width="12" height="12" fill="white"/>
<path d="M29.7043 9.39996C29.6371 9.39996 29.6035 9.36396 29.6035 9.29196V4.39596C29.6035 4.32396 29.6371 4.28796 29.7043 4.28796H32.5123C32.5843 4.28796 32.6203 4.32396 32.6203 4.39596V5.21676C32.6203 5.28876 32.5843 5.32476 32.5123 5.32476H30.9571V6.55596H32.3251C32.3971 6.55596 32.4331 6.59436 32.4331 6.67116V7.48476C32.4331 7.55676 32.3971 7.59276 32.3251 7.59276H30.9571V9.29196C30.9571 9.36396 30.9235 9.39996 30.8563 9.39996H29.7043Z" fill="#0D0D0E"/>
<path d="M13 19C13 15.6863 15.6863 13 19 13H25V25H19C15.6863 25 13 22.3137 13 19Z" fill="#FF5A67"/>
<path d="M19.26 21.4648C18.8568 21.4648 18.5016 21.388 18.1944 21.2344C17.8872 21.076 17.6472 20.8408 17.4744 20.5288C17.3016 20.2168 17.2152 19.8376 17.2152 19.3912V16.396C17.2152 16.324 17.2536 16.288 17.3304 16.288H18.4896C18.5616 16.288 18.5976 16.324 18.5976 16.396V19.492C18.5976 19.7656 18.66 19.9744 18.7848 20.1184C18.9096 20.2576 19.0848 20.3272 19.3104 20.3272C19.5312 20.3272 19.704 20.2576 19.8288 20.1184C19.9536 19.9744 20.016 19.7656 20.016 19.492V16.396C20.016 16.324 20.052 16.288 20.124 16.288H21.276C21.348 16.288 21.384 16.324 21.384 16.396V19.3912C21.384 19.8376 21.2928 20.2168 21.1104 20.5288C20.9328 20.8408 20.6832 21.076 20.3616 21.2344C20.0448 21.388 19.6776 21.4648 19.26 21.4648Z" fill="white"/>
<rect x="13" y="1" width="12" height="12" fill="white"/>
<path d="M18.9601 9.46476C18.5569 9.46476 18.2017 9.38796 17.8945 9.23436C17.5873 9.07596 17.3473 8.84076 17.1745 8.52876C17.0017 8.21676 16.9153 7.83756 16.9153 7.39116V4.39596C16.9153 4.32396 16.9537 4.28796 17.0305 4.28796H18.1897C18.2617 4.28796 18.2977 4.32396 18.2977 4.39596V7.49196C18.2977 7.76556 18.3601 7.97436 18.4849 8.11836C18.6097 8.25756 18.7849 8.32716 19.0105 8.32716C19.2313 8.32716 19.4041 8.25756 19.5289 8.11836C19.6537 7.97436 19.7161 7.76556 19.7161 7.49196V4.39596C19.7161 4.32396 19.7521 4.28796 19.8241 4.28796H20.9761C21.0481 4.28796 21.0841 4.32396 21.0841 4.39596V7.39116C21.0841 7.83756 20.9929 8.21676 20.8105 8.52876C20.6329 8.84076 20.3833 9.07596 20.0617 9.23436C19.7449 9.38796 19.3777 9.46476 18.9601 9.46476Z" fill="#0D0D0E"/>
</g>
<rect x="1" y="1" width="36" height="36" rx="2.13333" stroke="#0D0D0E" stroke-width="1.06667"/>
<defs>
<clipPath id="clip0_139_5759">
<rect x="1" y="1" width="36" height="36" rx="2.13333" fill="white"/>
</clipPath>
</defs>
</svg>
