<svg width="62" height="63" viewBox="0 0 62 63" fill="none" xmlns="http://www.w3.org/2000/svg">
<g clip-path="url(#clip0_174_6727)">
<rect x="1" y="1.5" width="60" height="60" rx="4" fill="#FF8F4D"/>
<rect width="60" height="60" transform="translate(1 1.5)" fill="white"/>
<rect x="1" y="1.5" width="20" height="20" fill="white"/>
<path d="M7.10058 15.5C6.98058 15.5 6.94058 15.444 6.98058 15.332L9.96858 7.13602C10.0166 7.02402 10.0966 6.96802 10.2086 6.96802H11.7926C11.9126 6.96802 11.9926 7.02402 12.0326 7.13602L15.0086 15.332C15.0246 15.364 15.0326 15.388 15.0326 15.404C15.0326 15.468 14.9846 15.5 14.8886 15.5H12.8246C12.6966 15.5 12.6206 15.44 12.5966 15.32L12.2606 14.168H9.69258L9.34458 15.32C9.31258 15.44 9.23658 15.5 9.11658 15.5H7.10058ZM11.7926 12.584L10.9766 9.84802C10.8006 10.456 10.5286 11.368 10.1606 12.584H11.7926Z" fill="#0D0D0E"/>
<rect x="1" y="21.5" width="20" height="20" fill="white"/>
<path d="M11.2389 35.6081C10.4549 35.6081 9.74286 35.4281 9.10286 35.0681C8.46286 34.7081 7.95486 34.2001 7.57886 33.5441C7.21086 32.8881 7.02686 32.1361 7.02686 31.2881C7.02686 30.4241 7.22686 29.6561 7.62686 28.9841C8.02686 28.3121 8.57886 27.7921 9.28286 27.4241C9.98686 27.0481 10.7749 26.8601 11.6469 26.8601C12.0469 26.8601 12.4669 26.9041 12.9069 26.9921C13.3549 27.0801 13.7389 27.2001 14.0589 27.3521C14.1149 27.3761 14.1549 27.4121 14.1789 27.4601C14.2109 27.5081 14.2269 27.5601 14.2269 27.6161V28.9601C14.2269 29.1441 14.1669 29.2361 14.0469 29.2361C13.9989 29.2361 13.9229 29.2161 13.8189 29.1761C13.1709 28.8801 12.5229 28.7321 11.8749 28.7321C11.0989 28.7321 10.4829 28.9601 10.0269 29.4161C9.57886 29.8721 9.35486 30.4801 9.35486 31.2401C9.35486 31.7361 9.44286 32.1721 9.61886 32.5481C9.79486 32.9241 10.0389 33.2161 10.3509 33.4241C10.6629 33.6241 11.0109 33.7241 11.3949 33.7241C11.8509 33.7241 12.2309 33.5881 12.5349 33.3161C12.8389 33.0361 13.0069 32.6601 13.0389 32.1881H11.5149C11.3949 32.1881 11.3349 32.1241 11.3349 31.9961V30.6761C11.3349 30.5561 11.3949 30.4961 11.5149 30.4961H14.7549C14.8749 30.4961 14.9469 30.5561 14.9709 30.6761C15.0269 30.9241 15.0549 31.2281 15.0549 31.5881C15.0549 32.3881 14.8949 33.0921 14.5749 33.7001C14.2629 34.3081 13.8189 34.7801 13.2429 35.1161C12.6669 35.4441 11.9989 35.6081 11.2389 35.6081Z" fill="#0D0D0E"/>
<rect x="1" y="41.5" width="20" height="20" fill="white"/>
<path d="M12.04 55.5C11.928 55.5 11.872 55.44 11.872 55.32V52.068H9.28V55.32C9.28 55.44 9.22 55.5 9.1 55.5H7.168C7.056 55.5 7 55.44 7 55.32V47.16C7 47.04 7.056 46.98 7.168 46.98H9.1C9.22 46.98 9.28 47.04 9.28 47.16V50.34H11.872V47.16C11.872 47.04 11.928 46.98 12.04 46.98H13.984C14.104 46.98 14.164 47.04 14.164 47.16V55.32C14.164 55.44 14.104 55.5 13.984 55.5H12.04Z" fill="#0D0D0E"/>
<rect x="21" y="41.5" width="20" height="20" fill="white"/>
<path d="M27.168 55.5C27.056 55.5 27 55.44 27 55.32V47.16C27 47.04 27.056 46.98 27.168 46.98H28.524C28.66 46.98 28.756 47.028 28.812 47.124L32.184 51.768V47.16C32.184 47.04 32.244 46.98 32.364 46.98H34.14C34.26 46.98 34.32 47.04 34.32 47.16V55.32C34.32 55.44 34.26 55.5 34.14 55.5H32.784C32.656 55.5 32.556 55.452 32.484 55.356L29.124 50.796V55.32C29.124 55.44 29.064 55.5 28.944 55.5H27.168Z" fill="#0D0D0E"/>
<rect x="41" y="41.5" width="20" height="20" fill="white"/>
<path d="M47.1006 55.5C46.9806 55.5 46.9406 55.444 46.9806 55.332L49.9686 47.136C50.0166 47.024 50.0966 46.968 50.2086 46.968H51.7926C51.9126 46.968 51.9926 47.024 52.0326 47.136L55.0086 55.332C55.0246 55.364 55.0326 55.388 55.0326 55.404C55.0326 55.468 54.9846 55.5 54.8886 55.5H52.8246C52.6966 55.5 52.6206 55.44 52.5966 55.32L52.2606 54.168H49.6926L49.3446 55.32C49.3126 55.44 49.2366 55.5 49.1166 55.5H47.1006ZM51.7926 52.584L50.9766 49.848C50.8006 50.456 50.5286 51.368 50.1606 52.584H51.7926Z" fill="#0D0D0E"/>
<path d="M41 21.5H50C55.5228 21.5 60 25.9772 60 31.5C60 37.0228 55.5228 41.5 50 41.5H41V21.5Z" fill="#FF5A67"/>
<path d="M45.9407 35.5C45.8287 35.5 45.7767 35.44 45.7847 35.32L47.2367 27.16C47.2607 27.04 47.3327 26.98 47.4527 26.98H49.2167C49.3447 26.98 49.4207 27.036 49.4447 27.148L51.0767 32.32L52.6247 27.148C52.6647 27.036 52.7447 26.98 52.8647 26.98H54.4727C54.5927 26.98 54.6647 27.04 54.6887 27.16L56.2007 35.308L56.2127 35.368C56.2047 35.456 56.1527 35.5 56.0567 35.5H54.1127C54.0007 35.5 53.9327 35.44 53.9087 35.32L53.2727 30.4L51.7847 35.272C51.7527 35.392 51.6767 35.452 51.5567 35.452H50.4767C50.3567 35.452 50.2767 35.392 50.2367 35.272L48.6767 30.46L47.9327 35.32C47.9247 35.44 47.8567 35.5 47.7287 35.5H45.9407Z" fill="white"/>
<rect x="41" y="1.5" width="20" height="20" fill="white"/>
<path d="M48.8404 15.5C48.7284 15.5 48.6724 15.44 48.6724 15.32V7.15998C48.6724 7.03998 48.7284 6.97998 48.8404 6.97998H53.5204C53.6404 6.97998 53.7004 7.03998 53.7004 7.15998V8.52798C53.7004 8.64798 53.6404 8.70798 53.5204 8.70798H50.9284V10.76H53.2084C53.3284 10.76 53.3884 10.824 53.3884 10.952V12.308C53.3884 12.428 53.3284 12.488 53.2084 12.488H50.9284V15.32C50.9284 15.44 50.8724 15.5 50.7604 15.5H48.8404Z" fill="#0D0D0E"/>
<path d="M21 31.5C21 25.9772 25.4772 21.5 31 21.5H41V41.5H31C25.4772 41.5 21 37.0228 21 31.5Z" fill="#FF5A67"/>
<path d="M31.4331 35.608C30.7611 35.608 30.1691 35.48 29.6571 35.224C29.1451 34.96 28.7451 34.568 28.4571 34.048C28.1691 33.528 28.0251 32.896 28.0251 32.152V27.16C28.0251 27.04 28.0891 26.98 28.2171 26.98H30.1491C30.2691 26.98 30.3291 27.04 30.3291 27.16V32.32C30.3291 32.776 30.4331 33.124 30.6411 33.364C30.8491 33.596 31.1411 33.712 31.5171 33.712C31.8851 33.712 32.1731 33.596 32.3811 33.364C32.5891 33.124 32.6931 32.776 32.6931 32.32V27.16C32.6931 27.04 32.7531 26.98 32.8731 26.98H34.7931C34.9131 26.98 34.9731 27.04 34.9731 27.16V32.152C34.9731 32.896 34.8211 33.528 34.5171 34.048C34.2211 34.568 33.8051 34.96 33.2691 35.224C32.7411 35.48 32.1291 35.608 31.4331 35.608Z" fill="white"/>
<rect x="21" y="1.5" width="20" height="20" fill="white"/>
<path d="M30.9331 15.608C30.2611 15.608 29.6691 15.48 29.1571 15.224C28.6451 14.96 28.2451 14.568 27.9571 14.048C27.6691 13.528 27.5251 12.896 27.5251 12.152V7.15998C27.5251 7.03998 27.5891 6.97998 27.7171 6.97998H29.6491C29.7691 6.97998 29.8291 7.03998 29.8291 7.15998V12.32C29.8291 12.776 29.9331 13.124 30.1411 13.364C30.3491 13.596 30.6411 13.712 31.0171 13.712C31.3851 13.712 31.6731 13.596 31.8811 13.364C32.0891 13.124 32.1931 12.776 32.1931 12.32V7.15998C32.1931 7.03998 32.2531 6.97998 32.3731 6.97998H34.2931C34.4131 6.97998 34.4731 7.03998 34.4731 7.15998V12.152C34.4731 12.896 34.3211 13.528 34.0171 14.048C33.7211 14.568 33.3051 14.96 32.7691 15.224C32.2411 15.48 31.6291 15.608 30.9331 15.608Z" fill="#0D0D0E"/>
</g>
<rect x="1" y="1.5" width="60" height="60" rx="4" stroke="#0D0D0E" stroke-width="2"/>
<defs>
<clipPath id="clip0_174_6727">
<rect x="1" y="1.5" width="60" height="60" rx="4" fill="white"/>
</clipPath>
</defs>
</svg>
