<svg width="44" height="20" viewBox="0 0 44 20" fill="none" xmlns="http://www.w3.org/2000/svg">
<path fill-rule="evenodd" clip-rule="evenodd" d="M16.3146 2.03579C16.3146 0.932731 17.1379 0.0714141 18.3745 0.0714143C19.6111 0.0714146 20.4345 0.932732 20.4345 2.03579C20.4345 3.13886 19.6095 4.02419 18.3745 4.02419C17.1396 4.02419 16.3146 3.13886 16.3146 2.03579ZM37.5424 6.49467C34.8087 6.49467 32.4409 8.15582 31.4988 10.7045C31.1014 11.7784 31.8961 12.9182 33.0436 12.9182C33.7755 12.9182 34.413 12.4365 34.6232 11.7388C35.0571 10.3053 36.1333 9.39138 37.5424 9.39138C39.3406 9.39138 40.647 10.9387 40.647 13.2218C40.647 15.5048 39.3654 17.1016 37.5424 17.1016C36.0091 17.1016 34.8666 15.9865 34.5222 14.3171L31.1461 14.3171C31.6494 17.6427 34.3649 20 37.5441 20C41.0428 20 44 17.1033 44 13.1987C44 9.29405 41.0676 6.49632 37.5441 6.49632L37.5424 6.49467ZM19.7849 6.65937L16.8241 6.65937C16.6015 6.65937 16.4794 6.7591 16.4794 6.98183L16.4794 19.5128C16.4794 19.7123 16.6031 19.8353 16.7994 19.8353L19.7849 19.8353C20.0075 19.8353 20.1049 19.7356 20.1049 19.5128L20.1049 6.98183C20.1049 6.78237 20.0059 6.65937 19.7849 6.65937ZM29.8421 9.12823C30.0361 9.12823 30.1573 9.03054 30.1573 8.81237L30.1573 6.91233C30.1573 6.71696 30.0603 6.59647 29.8421 6.59647L26.7471 6.59647L26.7471 3.18716C26.7471 2.96736 26.6259 2.8713 26.4335 2.8713L23.5324 3.84818C23.3062 3.91982 23.2173 4.07286 23.2173 4.29266L23.2173 6.5981L21.5736 6.5981C21.3554 6.5981 21.2584 6.69579 21.2584 6.91396L21.2584 8.81399C21.2584 9.03379 21.3554 9.12985 21.5736 9.12985L29.8421 9.12823ZM28.5628 17.1341C29.0529 17.1341 29.5903 17.0604 29.9317 16.9375C30.1996 16.8409 30.3221 16.9146 30.3221 17.2077L30.3221 19.1926C30.3221 19.4121 30.2257 19.5349 30.0297 19.6086C29.3698 19.8772 28.4893 20 27.4635 20C24.7257 20 23.236 18.7013 23.236 15.8845L23.236 12.2358C23.236 11.2483 24.0347 10.4474 25.0197 10.4474C26.0047 10.4474 26.8035 11.2483 26.8035 12.2358L26.8035 15.3212C26.8035 16.6198 27.341 17.1341 28.5628 17.1341ZM1.81193 6.16527C0.810473 6.16527 -1.21203e-06 7.00339 -1.39245e-06 8.03531L-3.39944e-06 19.5139C-3.43419e-06 19.7127 0.0962905 19.8353 0.311347 19.8353L3.62546 19.8353L3.62547 8.03531C3.62547 7.00174 2.81339 6.16527 1.81354 6.16527L1.81193 6.16527ZM0.319301 2.2125L4.48009 2.2125L4.48174 2.2158C10.6373 2.21581 14.5019 5.82698 14.5019 10.9213C14.5019 15.6386 11.4191 19.0068 6.335 19.6582C5.43141 19.774 4.63316 19.0613 4.63316 18.147C4.63316 17.4046 5.16478 16.7647 5.8939 16.6473C8.88118 16.1628 10.7098 14.1075 10.7098 11.0189C10.7098 7.4573 8.34627 5.28133 4.60353 5.23173L-9.00234e-07 5.22015L-4.30445e-07 2.53327C-3.99511e-07 2.35635 0.143191 2.2125 0.319301 2.2125Z" fill="#0D0D0E"/>
</svg>
