<svg width="38" height="38" viewBox="0 0 38 38" fill="none" xmlns="http://www.w3.org/2000/svg">
<path d="M1 3.13333C1 1.95513 1.95513 1 3.13333 1H13V13H1V3.13333Z" fill="white" stroke="#0D0D0E" stroke-width="1.06667"/>
<rect x="13" y="1" width="12" height="12" fill="white" stroke="#0D0D0E" stroke-width="1.06667"/>
<path d="M25 1H34.8667C36.0449 1 37 1.95513 37 3.13333V13H25V1Z" fill="#9DA3AE" stroke="#0D0D0E" stroke-width="1.06667"/>
<rect x="1" y="13" width="12" height="12" fill="#C8F000" stroke="#0D0D0E" stroke-width="1.06667"/>
<rect x="13" y="13" width="12" height="12" fill="#84ADD5" stroke="#0D0D0E" stroke-width="1.06667"/>
<rect x="25" y="13" width="12" height="12" fill="#9DA3AE" stroke="#0D0D0E" stroke-width="1.06667"/>
<path d="M1 25H13V37H3.13333C1.95513 37 1 36.0449 1 34.8667V25Z" fill="#C8F000" stroke="#0D0D0E" stroke-width="1.06667"/>
<rect x="13" y="25" width="12" height="12" fill="#C8F000" stroke="#0D0D0E" stroke-width="1.06667"/>
<path d="M25 25H37V34.8667C37 36.0449 36.0449 37 34.8667 37H25V25Z" fill="#C8F000" stroke="#0D0D0E" stroke-width="1.06667"/>
</svg>
