<svg width="62" height="62" viewBox="0 0 62 62" fill="none" xmlns="http://www.w3.org/2000/svg">
<path d="M1 5C1 2.79086 2.79086 1 5 1H21V21H1V5Z" fill="white" stroke="#0D0D0E" stroke-width="2"/>
<rect x="21" y="1" width="20" height="20" fill="white" stroke="#0D0D0E" stroke-width="2"/>
<path d="M41 1H57C59.2091 1 61 2.79086 61 5V21H41V1Z" fill="#9DA3AE" stroke="#0D0D0E" stroke-width="2"/>
<rect x="1" y="21" width="20" height="20" fill="#C8F000" stroke="#0D0D0E" stroke-width="2"/>
<rect x="21" y="21" width="20" height="20" fill="#84ADD5" stroke="#0D0D0E" stroke-width="2"/>
<rect x="41" y="21" width="20" height="20" fill="#9DA3AE" stroke="#0D0D0E" stroke-width="2"/>
<path d="M1 41H21V61H5C2.79086 61 1 59.2091 1 57V41Z" fill="#C8F000" stroke="#0D0D0E" stroke-width="2"/>
<rect x="21" y="41" width="20" height="20" fill="#C8F000" stroke="#0D0D0E" stroke-width="2"/>
<path d="M41 41H61V57C61 59.2091 59.2091 61 57 61H41V41Z" fill="#C8F000" stroke="#0D0D0E" stroke-width="2"/>
</svg>
