<svg width="106" height="41" viewBox="0 0 106 41" fill="none" xmlns="http://www.w3.org/2000/svg">
<path fill-rule="evenodd" clip-rule="evenodd" d="M2.0629 30.7253C2.93685 30.7249 3.70081 30.121 3.90391 29.2631C4.51841 26.6552 6.58507 25.0954 9.12135 25.0954C10.2421 25.0954 11.3878 25.3714 12.2105 25.7499C12.6335 25.9771 12.8333 25.9014 12.8333 25.3983L12.8333 22.9047C12.8333 22.6776 12.7584 22.5531 12.5352 22.4521C11.6626 22.1005 10.2438 21.7976 8.77329 21.7976C4.81984 21.7976 1.28604 24.1868 0.228559 28.3192C-0.0827853 29.5354 0.819343 30.7247 2.0629 30.7253ZM75.7881 21.966L78.652 21.966C78.8444 21.966 79 22.1227 79 22.3165L79 39.5804C79 39.8061 78.8511 39.9072 78.6771 39.9072L75.7881 39.9072C75.5639 39.9072 75.4401 39.7809 75.4401 39.5804L75.4401 37.4744C74.6188 39.2552 72.9007 40.1582 71.2078 40.1582C68.4292 40.1582 65.94 37.8889 65.5 34.3795L69.0565 34.3795C69.4279 36.1519 70.6825 37.2234 72.2031 37.2234C74.0466 37.2234 75.4652 35.6683 75.4652 33.2608C75.4652 30.8532 74.0701 29.3487 72.2031 29.3487C70.7812 29.3487 69.637 30.2214 69.1702 31.7007C68.9377 32.4403 68.2652 32.9508 67.494 32.9508C66.303 32.9508 65.4582 31.7782 65.8262 30.6359C66.6727 28.0077 68.7872 26.3903 71.258 26.3903C72.9258 26.3903 74.5937 27.2175 75.4401 28.973L75.4401 22.3165C75.4401 22.0671 75.589 21.966 75.7881 21.966ZM18.433 30.4217C19.1996 27.7978 20.7807 26.4725 23.1283 26.3472L23.1299 26.3489C23.4009 26.3238 23.5 26.4475 23.5 26.6731L23.5 29.8234C23.5 30.0975 23.4025 30.1476 23.2043 30.1476C22.4873 30.1476 21.795 30.2964 21.2267 30.4969C20.0851 30.8713 19.2872 31.6635 18.8923 32.9721C18.6346 33.8311 17.8713 34.4311 16.9842 34.4311C15.8888 34.4311 15 33.5319 15 32.4239L15 26.9488C15 26.6998 15.1222 26.5995 15.3453 26.5995L18.0878 26.5995C18.3339 26.5995 18.433 26.7232 18.433 26.9488L18.433 30.4217ZM43.417 36.8597L49.3424 36.8597C49.5664 36.8597 49.6667 36.984 49.6667 37.1855L49.6667 39.4957C49.6667 39.7207 49.5179 39.8214 49.3424 39.8214L38.9909 39.8214C38.7669 39.8214 38.6667 39.6971 38.6667 39.4957L38.6667 38.9433C38.6667 38.6915 38.7168 38.4917 38.8422 38.3154L44.7926 29.4758L39.4172 29.4758C39.1681 29.4758 39.0678 29.3515 39.0678 29.1249L39.0678 26.8398C39.0678 26.6149 39.1915 26.5141 39.4172 26.5141L49.2689 26.5141C49.4678 26.5141 49.5931 26.6384 49.5931 26.8398L49.5931 27.3922C49.5931 27.6441 49.5179 27.8438 49.3925 28.0201L43.417 36.8597ZM16.8333 35.2733C15.8209 35.2738 15 36.0847 15 37.0846L15 39.4747C15 39.6671 15.1579 39.8214 15.351 39.8214L18.2904 39.8214C18.5172 39.8214 18.6667 39.7219 18.6667 39.4747L18.6667 37.0846C18.6667 36.0847 17.8458 35.2738 16.8333 35.2733ZM60.4517 26.5979L63.3183 26.5979L63.3183 26.5996C63.51 26.5996 63.6667 26.756 63.6667 26.9511L63.6667 39.5797C63.6667 39.8051 63.5183 39.906 63.3433 39.906L60.4517 39.906C60.2283 39.906 60.1033 39.7815 60.1033 39.5797L60.1033 37.4657C59.28 39.2518 57.56 40.1583 55.865 40.1583C53.115 40.1583 50.6483 37.9316 50.1667 34.4805L53.735 34.4805C54.1367 36.1875 55.3733 37.2134 56.8617 37.2134C58.7067 37.2134 60.1283 35.6527 60.1283 33.2393C60.1283 30.826 58.7317 29.3157 56.8617 29.3157C55.39 29.3157 54.215 30.2508 53.78 31.8266C53.5667 32.5969 52.8783 33.1368 52.085 33.1368C50.93 33.1368 50.0767 32.0268 50.3867 30.905C51.165 28.0914 53.3483 26.3457 55.915 26.3457C57.585 26.3457 59.2567 27.1765 60.1033 28.9373L60.1033 26.9494C60.1033 26.6988 60.2517 26.5979 60.4517 26.5979ZM93.985 26.5979L91.1183 26.5979C90.9183 26.5979 90.77 26.6988 90.77 26.9494L90.77 28.9373C89.9233 27.1765 88.2517 26.3457 86.5817 26.3457C84.015 26.3457 81.8316 28.0914 81.0533 30.905C80.7433 32.0268 81.5967 33.1368 82.7517 33.1368C83.545 33.1368 84.2333 32.5969 84.4466 31.8266C84.8816 30.2508 86.0567 29.3157 87.5283 29.3157C89.3983 29.3157 90.795 30.826 90.795 33.2394C90.795 35.6527 89.3733 37.2134 87.5283 37.2134C86.04 37.2134 84.8033 36.1875 84.4017 34.4805L80.8333 34.4805C81.315 37.9316 83.7816 40.1583 86.5316 40.1583C88.2266 40.1583 89.9467 39.2518 90.77 37.4657L90.77 39.5797C90.77 39.7815 90.895 39.906 91.1183 39.906L94.01 39.906C94.185 39.906 94.3333 39.8051 94.3333 39.5797L94.3333 26.9511C94.3333 26.756 94.1767 26.5996 93.985 26.5996L93.985 26.5979ZM28.6667 29.7321C28.6667 30.7469 27.8446 31.5675 26.8317 31.5675L26.835 31.5658C25.8205 31.5658 25 30.7435 25 29.7304L25 27.0338C25 26.8396 25.157 26.6826 25.3511 26.6826L28.3155 26.6826C28.5418 26.6826 28.6667 26.8092 28.6667 27.0101L28.6667 29.7321ZM36.8414 26.6826L33.9123 26.6826C33.7138 26.6826 33.5654 26.7831 33.5654 27.0078L33.5654 34.3442C33.5654 36.19 32.6463 37.4876 31.0083 37.4876C29.5938 37.4876 28.6247 36.7147 28.6247 34.7683L28.6247 33.0382L25 33.0382L25 34.9678C25 38.5103 26.9616 40.1583 29.7422 40.1583C31.6038 40.1583 33.0199 39.3099 33.8389 37.7625L33.889 39.5849C33.889 39.7844 34.0124 39.9085 34.2359 39.9085L36.8431 39.9085C37.0416 39.9085 37.1667 39.8079 37.1667 39.5849L37.1667 27.0078C37.1667 26.8083 37.0666 26.6826 36.8431 26.6826L36.8414 26.6826ZM9.20526 36.8086C10.4341 36.8086 11.6126 36.5054 12.4911 36.0524L12.4894 36.0524C12.9906 35.7998 13.1667 35.9766 13.1667 36.4297L13.1667 38.8228C13.1667 39.0737 13.0678 39.2253 12.8666 39.3263C11.8892 39.781 10.3838 40.1583 8.65372 40.1583C4.37045 40.1583 0.559924 37.2144 -1.82603e-06 32.2413L3.87254 32.2413C4.37547 35.1447 6.56824 36.8086 9.20526 36.8086ZM103.655 32.3774C103.049 32.1094 102.341 32.245 101.871 32.7157C101.187 33.404 101.239 34.5663 102.023 35.1374C102.331 35.3618 102.489 35.6348 102.489 36.0233C102.489 36.9511 101.667 37.4519 100.199 37.4519C99.0539 37.4519 97.5845 37.127 96.4645 36.4001C96.2648 36.2745 96.1667 36.2996 96.1667 36.5508L96.1667 38.9558C96.1667 39.1568 96.2415 39.2321 96.3913 39.3058C97.3132 39.8066 98.9807 40.1583 100.498 40.1583C103.808 40.1583 106 38.3294 106 35.7235C106 33.9382 105.061 32.9987 103.657 32.3757L103.655 32.3774ZM100.043 33.3222C99.5985 33.7671 98.9241 33.8837 98.358 33.6121L98.3547 33.6121C97.0292 32.9756 96.1667 32.0342 96.1667 30.333C96.1667 27.792 98.4829 26.3457 101.447 26.3457C102.642 26.3457 104.113 26.5706 105.084 26.9189C105.258 26.9688 105.333 27.1171 105.333 27.2671L105.333 29.3849C105.333 29.7098 105.21 29.6848 104.985 29.6098C104.163 29.2349 102.917 28.9367 101.846 28.9367C100.478 28.9367 99.7051 29.4099 99.7051 30.133C99.7051 30.4696 99.84 30.7145 100.113 30.9228C100.819 31.4594 100.847 32.5174 100.221 33.1439L100.043 33.3222Z" fill="white"/>
<path fill-rule="evenodd" clip-rule="evenodd" d="M8.82561 8.60897e-07L4.23272 5.78506e-08C4.00248 1.75939e-08 3.90186 0.102615 3.90186 0.331788L3.90185 2.94163L8.77445 2.94163C11.1212 2.94163 12.3713 4.11828 12.3713 5.90891C12.3713 7.69954 11.2355 8.80778 9.01663 8.89329L9.01663 11.84C13.63 11.7699 16.3775 9.48504 16.3775 5.90891C16.3775 2.33278 13.468 1.67259e-06 8.82561 8.60897e-07ZM36.8955 5.76879e-06L33.7994 5.22745e-06C33.5941 5.19156e-06 33.4675 0.102471 33.4675 0.331313L33.4675 9.27683C33.4675 10.3134 34.3091 11.1537 35.3474 11.1537C36.3857 11.1537 37.2273 10.3134 37.2273 9.27683L37.2273 0.331313C37.2273 0.126381 37.1247 5.80887e-06 36.8955 5.76879e-06ZM27.4364 4.54686L30.3759 4.54686C30.5724 4.54686 30.7331 4.70619 30.7331 4.90492L30.7331 17.7713C30.7331 18.0009 30.581 18.1037 30.4015 18.1037L27.4364 18.1037C27.2074 18.1037 27.0793 17.9769 27.0793 17.7713L27.0793 15.6178C26.235 17.4372 24.4713 18.3606 22.7333 18.3606C19.9134 18.3606 17.3841 16.0923 16.8902 12.5768L20.5492 12.5768C20.961 14.3157 22.2291 15.3608 23.7553 15.3608C25.6471 15.3608 27.1049 13.7709 27.1049 11.3124C27.1049 8.85392 25.6728 7.31544 23.7553 7.31544C22.2462 7.31544 21.0414 8.268 20.5953 9.87329C20.3766 10.658 19.6708 11.2079 18.8573 11.2079C17.6729 11.2079 16.7979 10.0772 17.1158 8.93444C17.9139 6.06821 20.1527 4.28987 22.7845 4.28987C24.497 4.28987 26.2111 5.13621 27.0793 6.92996L27.0793 4.90492C27.0793 4.64965 27.2314 4.54686 27.4364 4.54686ZM52.7638 4.54686L49.8243 4.54686C49.6192 4.54686 49.4671 4.64966 49.4671 4.90493L49.4671 6.92997C48.599 5.13621 46.8848 4.28988 45.1724 4.28988C42.5406 4.28988 40.3018 6.06821 39.5037 8.93445C39.1858 10.0772 40.0608 11.2079 41.2451 11.2079C42.0586 11.2079 42.7644 10.658 42.9832 9.8733C43.4293 8.268 44.6341 7.31544 46.1431 7.31544C48.0606 7.31544 49.4928 8.85393 49.4928 11.3124C49.4928 13.7709 48.035 15.3608 46.1431 15.3608C44.617 15.3608 43.3489 14.3157 42.9371 12.5768L39.2781 12.5768C39.772 16.0923 42.3013 18.3606 45.1212 18.3606C46.8592 18.3606 48.6229 17.4372 49.4671 15.6178L49.4671 17.7713C49.4671 17.9769 49.5953 18.1037 49.8243 18.1037L52.7894 18.1037C52.9689 18.1037 53.121 18.0009 53.121 17.7713L53.121 4.90493C53.121 4.70619 52.9603 4.54686 52.7638 4.54686ZM91.7289 4.54687L88.7895 4.54687C88.5844 4.54687 88.4323 4.64966 88.4323 4.90493L88.4323 6.92997C87.5641 5.13622 85.85 4.28988 84.1376 4.28988C81.5057 4.28988 79.2669 6.06822 78.4688 8.93445C78.151 10.0772 79.026 11.2079 80.2103 11.2079C81.0238 11.2079 81.7296 10.658 81.9484 9.87331C82.3944 8.26801 83.5992 7.31545 85.1083 7.31545C87.0258 7.31545 88.4579 8.85393 88.4579 11.3124C88.4579 13.7709 87.0001 15.3608 85.1083 15.3608C83.5822 15.3608 82.3141 14.3157 81.9022 12.5768L78.2432 12.5768C78.7371 16.0923 81.2665 18.3607 84.0863 18.3607C85.8244 18.3607 87.588 17.4372 88.4323 15.6178L88.4323 17.7713C88.4323 17.9769 88.5605 18.1037 88.7895 18.1037L91.7546 18.1037C91.934 18.1037 92.0861 18.0009 92.0861 17.7713L92.0861 4.90493C92.0861 4.7062 91.9255 4.54687 91.7289 4.54687ZM33.8009 18.0175C33.5718 18.0175 33.4692 17.8921 33.4692 17.6887L33.4675 17.6887L33.4675 12.5265L37.2273 12.5265L37.2273 17.6887C37.2273 17.9158 37.1008 18.0175 36.8956 18.0175L33.8009 18.0175ZM67.2913 4.46323L64.7594 4.46323C64.5307 4.46322 64.4054 4.56683 64.3546 4.79823L61.7752 11.4102C61.6279 11.7867 61.6296 12.208 61.7803 12.5827C62.3036 13.8882 64.1209 13.8778 64.6307 12.5672L67.5945 4.95191C67.7215 4.64281 67.6199 4.4615 67.2913 4.4615L67.2913 4.46323ZM54.3287 4.4615L57.0733 4.4615L57.0751 4.4615C57.3049 4.4615 57.4336 4.58805 57.5108 4.79326L62.6914 17.8704C62.6056 17.9662 62.4855 18.0175 62.3277 18.0175L59.5384 18.0175C59.3085 18.0175 59.1542 17.8909 59.077 17.7114L54.0216 4.92151C53.8929 4.58975 54.0456 4.4615 54.3287 4.4615ZM77.3494 4.29144C74.9421 4.41912 73.3209 5.76921 72.5349 8.44213L72.5349 4.90263C72.5349 4.6728 72.4332 4.54681 72.1808 4.54681L69.3687 4.54681C69.14 4.54681 69.0146 4.64896 69.0146 4.90263L69.0146 10.4817C69.0146 11.6105 69.926 12.5264 71.0492 12.5264C71.9589 12.5264 72.7416 11.9152 73.0058 11.0401C73.4107 9.70709 74.2289 8.90011 75.3995 8.51875C75.9823 8.31445 76.6921 8.16292 77.4273 8.16292C77.6306 8.16292 77.7305 8.11185 77.7305 7.83264L77.7305 4.62342C77.7305 4.39359 77.6289 4.2676 77.3511 4.29314L77.3494 4.29144ZM69.0146 15.2295C69.0146 14.2109 69.8564 13.3849 70.8945 13.3844C71.9327 13.3849 72.7744 14.2109 72.7744 15.2295L72.7744 17.6643C72.7744 17.9161 72.6212 18.0175 72.3886 18.0175L69.3746 18.0175C69.1765 18.0175 69.0146 17.8603 69.0146 17.6643L69.0146 15.2295ZM3.90185 6.09409C3.90185 5.00357 4.78209 4.11875 5.8672 4.11829C6.95232 4.11875 7.83255 5.00357 7.83255 6.09409L7.83255 17.8306C7.83255 18.0278 7.67382 18.1891 7.47583 18.1891L4.23297 18.1891C4.00426 18.1891 3.90185 18.0621 3.90185 17.8563L3.90185 6.09409ZM101.645 10.4343C101.024 10.1613 100.297 10.2995 99.8155 10.7789C99.1142 11.4801 99.1671 12.6641 99.9708 13.2459C100.287 13.4745 100.449 13.7526 100.449 14.1484C100.449 15.0935 99.6057 15.6037 98.1006 15.6037C96.9266 15.6037 95.4199 15.2727 94.2715 14.5323C94.0667 14.4043 93.966 14.4299 93.966 14.6858L93.966 17.1357C93.966 17.3404 94.0428 17.4172 94.1964 17.4923C95.1417 18.0024 96.8515 18.3607 98.4078 18.3607C101.802 18.3607 104.049 16.4976 104.049 13.843C104.049 12.0243 103.087 11.0672 101.647 10.4326L101.645 10.4343ZM97.941 11.3968C97.4851 11.85 96.7936 11.9688 96.213 11.6922L96.2096 11.6922C94.8505 11.0438 93.966 10.0847 93.966 8.35172C93.966 5.76321 96.3411 4.28988 99.3803 4.28989C100.606 4.28989 102.114 4.51903 103.109 4.87379C103.289 4.92471 103.366 5.07577 103.366 5.22854L103.366 7.38591C103.366 7.7169 103.239 7.69144 103.009 7.61506C102.165 7.23315 100.888 6.92931 99.7901 6.92931C98.3866 6.92931 97.5943 7.41137 97.5943 8.14803C97.5943 8.4909 97.7326 8.74042 98.0127 8.95259C98.7366 9.49915 98.7657 10.577 98.1237 11.2152L97.941 11.3968Z" fill="white"/>
</svg>
