<svg width="62" height="62" viewBox="0 0 62 62" fill="none" xmlns="http://www.w3.org/2000/svg">
<g clip-path="url(#clip0_1815_2884)">
<rect x="1" y="1" width="20" height="20" fill="white" stroke="#0D0D0E" stroke-width="2"/>
<rect x="1" y="21" width="20" height="20" fill="white" stroke="#0D0D0E" stroke-width="2"/>
<rect x="21" y="21" width="20" height="20" fill="#0D0D0E" stroke="#0D0D0E" stroke-width="2"/>
<rect x="21" y="1" width="20" height="20" fill="white" stroke="#0D0D0E" stroke-width="2"/>
<path d="M1 41H21V61H1V41Z" fill="#0D0D0E" stroke="#0D0D0E" stroke-width="2"/>
<path d="M9.20556 55C9.09356 55 9.03756 54.94 9.03756 54.82V46.66C9.03756 46.54 9.09356 46.48 9.20556 46.48H13.9696C14.0896 46.48 14.1496 46.54 14.1496 46.66V48.028C14.1496 48.148 14.0896 48.208 13.9696 48.208H11.2936V49.828H13.5376C13.6656 49.828 13.7296 49.888 13.7296 50.008V51.304C13.7296 51.432 13.6656 51.496 13.5376 51.496H11.2936V53.272H13.9696C14.0896 53.272 14.1496 53.332 14.1496 53.452V54.82C14.1496 54.94 14.0896 55 13.9696 55H9.20556Z" fill="#0D0D0E"/>
<rect x="41" y="21" width="20" height="20" fill="white" stroke="#0D0D0E" stroke-width="2"/>
<path d="M50.9736 35C50.8456 35 50.7816 34.94 50.7816 34.82V29.036L49.4016 29.636C49.3696 29.652 49.3456 29.66 49.3296 29.66C49.2656 29.66 49.2336 29.612 49.2336 29.516V28.028C49.2336 27.9 49.2896 27.812 49.4016 27.764L52.0056 26.54C52.1176 26.484 52.2376 26.456 52.3656 26.456H52.8456C52.9656 26.456 53.0256 26.52 53.0256 26.648V34.82C53.0256 34.94 52.9656 35 52.8456 35H50.9736Z" fill="white"/>
<rect x="21" y="41" width="20" height="20" fill="white" stroke="#0D0D0E" stroke-width="2"/>
<rect x="41" y="1" width="20" height="20" fill="#0D0D0E" stroke="#0D0D0E" stroke-width="2"/>
<rect x="41" y="41" width="20" height="20" fill="white" stroke="#0D0D0E" stroke-width="2"/>
<rect x="6" y="19" width="50" height="24" rx="8" fill="#FF8F4D"/>
<path d="M19.4893 36L17.083 28.1592H17.0215C17.0306 28.346 17.0443 28.6286 17.0625 29.0068C17.0853 29.3805 17.1058 29.7793 17.124 30.2031C17.1423 30.627 17.1514 31.0098 17.1514 31.3516V36H15.2578V26.0059H18.1426L20.5078 33.6484H20.5488L23.0576 26.0059H25.9424V36H23.9668V31.2695C23.9668 30.9551 23.9714 30.5928 23.9805 30.1826C23.9941 29.7725 24.0101 29.3828 24.0283 29.0137C24.0465 28.64 24.0602 28.3597 24.0693 28.1729H24.0078L21.4307 36H19.4893ZM28.3248 36V26.0059H30.444V36H28.3248ZM41.6858 36H38.9925L34.6448 28.4395H34.5833C34.6015 28.7539 34.6175 29.0706 34.6311 29.3896C34.6448 29.7087 34.6585 30.0277 34.6721 30.3467C34.6858 30.6611 34.6995 30.9779 34.7132 31.2969V36H32.8196V26.0059H35.4925L39.8333 33.4912H39.8811C39.872 33.1813 39.8606 32.8737 39.847 32.5684C39.8333 32.263 39.8196 31.9577 39.8059 31.6523C39.7968 31.347 39.7877 31.0417 39.7786 30.7363V26.0059H41.6858V36ZM44.0683 36V26.0059H46.1874V36H44.0683Z" fill="white"/>
</g>
<rect x="1" y="1" width="60" height="60" rx="4" stroke="black" stroke-width="2"/>
<defs>
<clipPath id="clip0_1815_2884">
<rect x="1" y="1" width="60" height="60" rx="4" fill="white"/>
</clipPath>
</defs>
</svg>
