<svg width="62" height="62" viewBox="0 0 62 62" fill="none" xmlns="http://www.w3.org/2000/svg">
<g clip-path="url(#clip0_8406_15361)">
<rect x="1" y="1" width="20" height="20" fill="white" stroke="#0D0D0E" stroke-width="2"/>
<rect x="1" y="21" width="20" height="20" fill="white" stroke="#0D0D0E" stroke-width="2"/>
<rect x="21" y="21" width="20" height="20" fill="#0D0D0E" stroke="#0D0D0E" stroke-width="2"/>
<rect x="21" y="1" width="20" height="20" fill="white" stroke="#0D0D0E" stroke-width="2"/>
<path d="M1 41H21V61H1V41Z" fill="#0D0D0E" stroke="#0D0D0E" stroke-width="2"/>
<path d="M9.20556 55C9.09356 55 9.03756 54.94 9.03756 54.82V46.66C9.03756 46.54 9.09356 46.48 9.20556 46.48H13.9696C14.0896 46.48 14.1496 46.54 14.1496 46.66V48.028C14.1496 48.148 14.0896 48.208 13.9696 48.208H11.2936V49.828H13.5376C13.6656 49.828 13.7296 49.888 13.7296 50.008V51.304C13.7296 51.432 13.6656 51.496 13.5376 51.496H11.2936V53.272H13.9696C14.0896 53.272 14.1496 53.332 14.1496 53.452V54.82C14.1496 54.94 14.0896 55 13.9696 55H9.20556Z" fill="#0D0D0E"/>
<rect x="41" y="21" width="20" height="20" fill="white" stroke="#0D0D0E" stroke-width="2"/>
<path d="M50.9736 35C50.8456 35 50.7816 34.94 50.7816 34.82V29.036L49.4016 29.636C49.3696 29.652 49.3456 29.66 49.3296 29.66C49.2656 29.66 49.2336 29.612 49.2336 29.516V28.028C49.2336 27.9 49.2896 27.812 49.4016 27.764L52.0056 26.54C52.1176 26.484 52.2376 26.456 52.3656 26.456H52.8456C52.9656 26.456 53.0256 26.52 53.0256 26.648V34.82C53.0256 34.94 52.9656 35 52.8456 35H50.9736Z" fill="white"/>
<rect x="21" y="41" width="20" height="20" fill="white" stroke="#0D0D0E" stroke-width="2"/>
<rect x="41" y="1" width="20" height="20" fill="#0D0D0E" stroke="#0D0D0E" stroke-width="2"/>
<rect x="41" y="41" width="20" height="20" fill="white" stroke="#0D0D0E" stroke-width="2"/>
</g>
<rect x="1" y="1" width="60" height="60" rx="4" stroke="black" stroke-width="2"/>
<defs>
<clipPath id="clip0_8406_15361">
<rect x="1" y="1" width="60" height="60" rx="4" fill="white"/>
</clipPath>
</defs>
</svg>
