<svg width="38" height="38" viewBox="0 0 38 38" fill="none" xmlns="http://www.w3.org/2000/svg">
<g clip-path="url(#clip0_1506_2197)">
<rect x="1" y="1" width="12" height="12" fill="white" stroke="#0D0D0E"/>
<rect x="1.00012" y="13" width="12" height="12" fill="white" stroke="#0D0D0E"/>
<rect x="13.0001" y="13" width="12" height="12" fill="#0D0D0E" stroke="#0D0D0E"/>
<rect x="13.0001" y="1" width="12" height="12" fill="white" stroke="#0D0D0E"/>
<path d="M1.00006 25H13.0001V37H1.00006V25Z" fill="#0D0D0E" stroke="#0D0D0E"/>
<path d="M6.07629 33.2C6.01655 33.2 5.98669 33.168 5.98669 33.104V28.752C5.98669 28.688 6.01655 28.656 6.07629 28.656H8.61709C8.68109 28.656 8.71309 28.688 8.71309 28.752V29.4816C8.71309 29.5456 8.68109 29.5776 8.61709 29.5776H7.18989V30.4416H8.38669C8.45495 30.4416 8.48909 30.4736 8.48909 30.5376V31.2288C8.48909 31.297 8.45495 31.3312 8.38669 31.3312H7.18989V32.2784H8.61709C8.68109 32.2784 8.71309 32.3104 8.71309 32.3744V33.104C8.71309 33.168 8.68109 33.2 8.61709 33.2H6.07629Z" fill="#0D0D0E"/>
<rect x="25.0001" y="13" width="12" height="12" fill="white" stroke="#0D0D0E" stroke-width="1.06667"/>
<path d="M31.0194 21.2C30.9511 21.2 30.917 21.168 30.917 21.104V18.0192L30.181 18.3392C30.1639 18.3477 30.1511 18.352 30.1426 18.352C30.1085 18.352 30.0914 18.3264 30.0914 18.2752V17.4816C30.0914 17.4133 30.1213 17.3664 30.181 17.3408L31.5698 16.688C31.6295 16.6581 31.6935 16.6432 31.7618 16.6432H32.0178C32.0818 16.6432 32.1138 16.6773 32.1138 16.7456V21.104C32.1138 21.168 32.0818 21.2 32.0178 21.2H31.0194Z" fill="white"/>
<rect x="13.0001" y="25" width="12" height="12" fill="white" stroke="#0D0D0E"/>
<rect x="25.0001" y="1" width="12" height="12" fill="#0D0D0E" stroke="#0D0D0E"/>
<rect x="25.0001" y="25" width="12" height="12" fill="white" stroke="#0D0D0E"/>
</g>
<rect x="1" y="1" width="36" height="36" rx="2.13333" stroke="black" stroke-width="1.06667"/>
<defs>
<clipPath id="clip0_1506_2197">
<rect x="1" y="1" width="36" height="36" rx="2.13333" fill="white"/>
</clipPath>
</defs>
</svg>
