<svg width="42" height="37" viewBox="0 0 42 37" fill="none" xmlns="http://www.w3.org/2000/svg">
<path d="M10.7317 1.76594C12.6244 0.673173 14.9563 0.673173 16.849 1.76594C18.7417 2.85869 19.9076 4.87821 19.9076 7.06371C19.9076 9.2492 18.7417 11.2687 16.849 12.3615C14.9563 13.4542 12.6244 13.4542 10.7317 12.3615C8.83898 11.2687 7.67303 9.2492 7.67303 7.06371C7.67303 4.87821 8.83898 2.85869 10.7317 1.76594Z" fill="white" stroke="#0D0D0E" stroke-width="1.1"/>
<path d="M24.1863 1.76594C26.079 0.673173 28.4109 0.673173 30.3036 1.76594C32.1963 2.85869 33.3622 4.87821 33.3622 7.06371C33.3622 9.2492 32.1963 11.2687 30.3036 12.3615C28.4109 13.4542 26.079 13.4542 24.1863 12.3615C22.2936 11.2687 21.1276 9.2492 21.1276 7.06371C21.1276 4.87821 22.2936 2.85869 24.1863 1.76594Z" fill="#CDFBF5" stroke="#0D0D0E" stroke-width="1.1"/>
<path d="M4.00498 13.2017C5.89769 12.109 8.22961 12.109 10.1223 13.2017C12.015 14.2945 13.1809 16.314 13.1809 18.4995C13.1809 20.685 12.015 22.7045 10.1223 23.7973C8.22961 24.89 5.89769 24.89 4.00498 23.7973C2.11229 22.7045 0.94635 20.685 0.94635 18.4995C0.94635 16.314 2.11229 14.2945 4.00498 13.2017Z" fill="#CDFBF5" stroke="#0D0D0E" stroke-width="1.1"/>
<path d="M17.4596 13.2017C19.3523 12.109 21.6842 12.109 23.5769 13.2017C25.4696 14.2945 26.6355 16.314 26.6355 18.4995C26.6355 20.685 25.4696 22.7045 23.5769 23.7973C21.6842 24.89 19.3523 24.89 17.4596 23.7973C15.5669 22.7045 14.4009 20.685 14.4009 18.4995C14.4009 16.314 15.5669 14.2945 17.4596 13.2017Z" fill="#21B8A6" stroke="#0D0D0E" stroke-width="1.1"/>
<path d="M30.9142 13.2017C32.8069 12.109 35.1388 12.109 37.0315 13.2017C38.9242 14.2945 40.0901 16.314 40.0901 18.4995C40.0901 20.685 38.9242 22.7045 37.0315 23.7973C35.1388 24.89 32.8069 24.89 30.9142 23.7973C29.0215 22.7045 27.8555 20.685 27.8555 18.4995C27.8555 16.314 29.0215 14.2945 30.9142 13.2017Z" fill="#CDFBF5" stroke="#0D0D0E" stroke-width="1.1"/>
<path d="M10.7317 24.64C12.6244 23.5473 14.9563 23.5473 16.849 24.64C18.7417 25.7328 19.9076 27.7523 19.9076 29.9378C19.9076 32.1233 18.7417 34.1428 16.849 35.2356C14.9563 36.3283 12.6244 36.3283 10.7317 35.2356C8.83898 34.1428 7.67303 32.1233 7.67303 29.9378C7.67303 27.7523 8.83898 25.7328 10.7317 24.64Z" fill="#0C8072" stroke="#0D0D0E" stroke-width="1.1"/>
<path d="M24.1863 24.64C26.079 23.5473 28.4109 23.5473 30.3036 24.64C32.1963 25.7328 33.3622 27.7523 33.3622 29.9378C33.3622 32.1233 32.1963 34.1428 30.3036 35.2356C28.4109 36.3283 26.079 36.3283 24.1863 35.2356C22.2936 34.1428 21.1276 32.1233 21.1276 29.9378C21.1276 27.7523 22.2936 25.7328 24.1863 24.64Z" fill="white" stroke="#0D0D0E" stroke-width="1.1"/>
</svg>
