<?xml version="1.0" encoding="utf-8"?>
<!-- Generator: Adobe Illustrator 28.1.0, SVG Export Plug-In . SVG Version: 6.00 Build 0)  -->
<svg version="1.1" id="Layer_1" xmlns="http://www.w3.org/2000/svg" xmlns:xlink="http://www.w3.org/1999/xlink" x="0px" y="0px"
	 width="86px" height="20.3px" viewBox="0 0 86 20.3" style="enable-background:new 0 0 86 20.3;" xml:space="preserve">
<style type="text/css">
	.st0{clip-path:url(#SVGID_00000059992752772943918220000013509307777633720494_);}
</style>
<g>
	<g>
		<defs>
			<rect id="SVGID_1_" x="0.1" y="0.4" width="85.9" height="19.9"/>
		</defs>
		<clipPath id="SVGID_00000023239681250362003050000004944720080178379437_">
			<use xlink:href="#SVGID_1_"  style="overflow:visible;"/>
		</clipPath>
		<g id="Soletra" style="clip-path:url(#SVGID_00000023239681250362003050000004944720080178379437_);">
			<path id="Vector" d="M5.3,10.2L5.3,10.2C6.1,9.4,6,8.1,5.1,7.3C4.7,6.9,4.4,6.4,4.4,5.7c0-1.2,1.1-2,2.8-2c1.2,0,2.7,0.3,3.7,0.8
				c0.3,0.1,0.5,0.1,0.5-0.2V1.7c0-0.3-0.1-0.4-0.3-0.5C9.8,0.8,8.3,0.5,6.7,0.5c-3.6,0-6.5,2.1-6.5,5.4C0.2,8,1.3,9.4,3,10.5
				C3.7,11,4.7,10.8,5.3,10.2L5.3,10.2z"/>
			<path id="Vector_2" d="M7.5,10.1c-0.8,0.8-0.7,2.1,0.1,2.8c0.5,0.4,0.8,0.9,0.8,1.6C8.4,16,7.1,17,5.2,17c-1.5,0-3.3-0.5-4.7-1.3
				c-0.3-0.1-0.4-0.1-0.4,0.2v2.8c0,0.3,0.1,0.4,0.3,0.5c1.4,0.7,3.4,1.1,5.2,1.1c4.2,0,6.9-2.5,6.9-5.9c0-2-0.9-3.4-2.6-4.5
				C9.1,9.4,8.1,9.5,7.5,10.1L7.5,10.1z"/>
			<path id="Vector_3" d="M85.6,5.6h-3.1c-0.2,0-0.4,0.1-0.4,0.4v2.1c-0.9-1.9-2.7-2.8-4.6-2.8c-2.8,0-5.2,1.9-6,4.9
				c-0.3,1.2,0.6,2.4,1.9,2.4c0.9,0,1.6-0.6,1.8-1.4c0.5-1.7,1.8-2.7,3.4-2.7c2,0,3.6,1.6,3.6,4.2S80.7,17,78.6,17
				c-1.6,0-3-1.1-3.4-3h-3.9c0.5,3.7,3.2,6.1,6.2,6.1c1.8,0,3.7-1,4.6-2.9v2.3c0,0.2,0.1,0.4,0.4,0.4h3.2c0.2,0,0.4-0.1,0.4-0.4V6
				C86,5.8,85.8,5.6,85.6,5.6L85.6,5.6z"/>
			<path id="Vector_4" d="M63.8,14.1c1,0,1.8-0.7,2.1-1.6c0.4-1.4,1.3-2.3,2.6-2.7c0.6-0.2,1.4-0.4,2.2-0.4C70.9,9.4,71,9.3,71,9
				V5.7c0-0.2-0.1-0.4-0.4-0.4c-2.6,0.1-4.3,1.6-5.2,4.4V6c0-0.2-0.1-0.4-0.4-0.4h-3c-0.2,0-0.4,0.1-0.4,0.4v6
				C61.6,13.2,62.5,14.1,63.8,14.1L63.8,14.1z"/>
			<path id="Vector_5" d="M61.6,17v2.6c0,0.2,0.2,0.4,0.4,0.4h3.2c0.2,0,0.4-0.1,0.4-0.4V17c0-1.1-0.9-2-2-2S61.6,15.9,61.6,17
				L61.6,17z"/>
			<path id="Vector_6" d="M56,8.5h3.5c0.2,0,0.4-0.1,0.4-0.4V6c0-0.2-0.1-0.4-0.4-0.4H56V1.8c0-0.2-0.1-0.4-0.4-0.4l-3.3,1.1
				C52.1,2.6,52,2.8,52,3.1v2.6h-1.8c-0.2,0-0.4,0.1-0.4,0.4v2.1c0,0.2,0.1,0.4,0.4,0.4L56,8.5L56,8.5z"/>
			<path id="Vector_7" d="M59.4,16.9c-0.4,0.1-1,0.2-1.5,0.2c-1.4,0-2-0.6-2-2v-3.4c0-1.1-0.9-2-2-2s-2,0.9-2,2v4
				c0,3.1,1.7,4.6,4.7,4.6c1.1,0,2.1-0.1,2.9-0.4c0.2-0.1,0.3-0.2,0.3-0.5v-2.2C59.9,16.9,59.7,16.8,59.4,16.9z"/>
			<path id="Vector_8" d="M32,12.7c1.1,0,2-0.9,2-2V0.1c0-0.2-0.1-0.4-0.4-0.4h-3.3c-0.2,0-0.4,0.1-0.4,0.4v10.6
				C30,11.8,30.9,12.7,32,12.7L32,12.7z"/>
			<path id="Vector_9" d="M30,14.1v5.5c0,0.2,0.1,0.4,0.4,0.4h3.3c0.2,0,0.4-0.1,0.4-0.4v-5.5H30L30,14.1z"/>
			<path id="Vector_10" d="M20.7,5.4c-3,0-5.6,1.8-6.6,4.6c-0.4,1.2,0.4,2.4,1.7,2.4c0.8,0,1.5-0.5,1.7-1.3c0.5-1.6,1.7-2.6,3.2-2.6
				c2,0,3.4,1.7,3.4,4.2S22.7,17,20.7,17c-1.7,0-2.9-1.2-3.3-3.1h-3.7c0.6,3.7,3.5,6.3,7,6.3c3.8,0,7.1-3.2,7.1-7.5
				S24.5,5.4,20.7,5.4L20.7,5.4z"/>
			<path id="Vector_11" d="M48.4,13.7c0.8,0,1-0.3,1-1.7c0-4.5-2.7-6.7-6.2-6.7c-3.9,0-7,3-7,7.6c0,4.7,3,7.3,7.6,7.3
				c1.9,0,3.7-0.6,4.3-0.9c0.3-0.2,0.3-0.4,0.3-0.6c0,0,0-1.2,0-2.1c0-0.2-0.1-0.4-0.5-0.2c-0.8,0.4-1.8,0.8-3.5,0.8
				c-2.6,0-4.1-1.3-4.4-3.6c-0.2-1.3,0.1-2.5,0.1-2.5c0.4-1.9,1.5-3,3-3c1.7,0,2.7,1.2,2.8,3h-3.7c-0.7,0-1.2,0.6-1.2,1.3
				s0.6,1.3,1.2,1.3L48.4,13.7L48.4,13.7z"/>
		</g>
	</g>
</g>
</svg>
