<svg width="69" height="62" viewBox="0 0 69 62" fill="none" xmlns="http://www.w3.org/2000/svg">
<path d="M17.93 3.00002C21.1454 1.1436 25.1069 1.1436 28.3223 3.00002C31.5376 4.85641 33.5183 8.28723 33.5183 12C33.5183 15.7128 31.5376 19.1436 28.3223 21C25.1069 22.8564 21.1454 22.8564 17.93 21C14.7146 19.1436 12.7339 15.7128 12.7339 12C12.7339 8.28723 14.7146 4.85641 17.93 3.00002Z" fill="white" stroke="#0D0D0E" stroke-width="2.21817"/>
<path d="M40.1119 3.00002C43.3272 1.1436 47.2888 1.1436 50.5042 3.00002C53.7195 4.85641 55.7002 8.28723 55.7002 12C55.7002 15.7128 53.7195 19.1436 50.5042 21C47.2888 22.8564 43.3272 22.8564 40.1119 21C36.8965 19.1436 34.9158 15.7128 34.9158 12C34.9158 8.28723 36.8965 4.85641 40.1119 3.00002Z" fill="#CDFBF5" stroke="#0D0D0E" stroke-width="2.21817"/>
<path d="M6.84014 21.854C10.0555 19.9976 14.017 19.9976 17.2324 21.854C20.4478 23.7104 22.4285 27.1412 22.4285 30.854C22.4285 34.5668 20.4478 37.9976 17.2324 39.854C14.017 41.7104 10.0555 41.7104 6.84014 39.854C3.62479 37.9976 1.64406 34.5668 1.64406 30.854C1.64406 27.1412 3.62479 23.7104 6.84014 21.854Z" fill="#CDFBF5" stroke="#0D0D0E" stroke-width="2.21817"/>
<path d="M29.022 21.854C32.2374 19.9976 36.1989 19.9976 39.4143 21.854C42.6297 23.7104 44.6104 27.1412 44.6104 30.854C44.6104 34.5668 42.6297 37.9976 39.4143 39.854C36.1989 41.7104 32.2374 41.7104 29.022 39.854C25.8067 37.9976 23.8259 34.5668 23.8259 30.854C23.8259 27.1412 25.8067 23.7104 29.022 21.854Z" fill="#21B8A6" stroke="#0D0D0E" stroke-width="2.21817"/>
<path d="M51.2038 21.854C54.4192 19.9976 58.3807 19.9976 61.5961 21.854C64.8114 23.7104 66.7921 27.1412 66.7921 30.854C66.7921 34.5668 64.8114 37.9976 61.5961 39.854C58.3807 41.7104 54.4192 41.7104 51.2038 39.854C47.9884 37.9976 46.0077 34.5668 46.0077 30.854C46.0077 27.1412 47.9884 23.7104 51.2038 21.854Z" fill="#CDFBF5" stroke="#0D0D0E" stroke-width="2.21817"/>
<path d="M17.93 40.71C21.1454 38.8536 25.1069 38.8536 28.3223 40.71C31.5376 42.5664 33.5183 45.9972 33.5183 49.71C33.5183 53.4227 31.5376 56.8535 28.3223 58.7099C25.1069 60.5664 21.1454 60.5664 17.93 58.7099C14.7146 56.8535 12.7339 53.4227 12.7339 49.71C12.7339 45.9972 14.7146 42.5664 17.93 40.71Z" fill="#0C8072" stroke="#0D0D0E" stroke-width="2.21817"/>
<path d="M40.1119 40.71C43.3272 38.8536 47.2888 38.8536 50.5042 40.71C53.7195 42.5664 55.7002 45.9972 55.7002 49.71C55.7002 53.4227 53.7195 56.8535 50.5042 58.7099C47.2888 60.5664 43.3272 60.5664 40.1119 58.7099C36.8965 56.8535 34.9158 53.4227 34.9158 49.71C34.9158 45.9972 36.8965 42.5664 40.1119 40.71Z" fill="white" stroke="#0D0D0E" stroke-width="2.21817"/>
</svg>
