<svg width="82" height="18" viewBox="0 0 82 18" fill="none" xmlns="http://www.w3.org/2000/svg">
<path fill-rule="evenodd" clip-rule="evenodd" d="M2.68836 9.13827C3.37513 9.58343 4.28035 9.47672 4.8579 8.89485L4.86618 8.88651C5.60425 8.14291 5.51654 6.94081 4.71889 6.26557C4.26711 5.8821 3.98247 5.42194 3.98247 4.79171C3.98247 3.69966 4.96712 2.93105 6.49457 2.93105C7.57852 2.93105 8.98185 3.22949 9.89369 3.65131C10.1651 3.75134 10.3124 3.75134 10.3124 3.4529L10.3124 1.06705C10.3124 0.818628 10.1899 0.69525 10.0162 0.620223C8.95703 0.248424 7.50405 1.31205e-06 6.12388 1.07073e-06C2.80089 4.89723e-07 0.166328 1.88567 0.166328 4.91342C0.166327 6.86079 1.14601 8.13791 2.69001 9.13827L2.68836 9.13827ZM8.90491 8.54124C8.21622 8.08719 7.29908 8.18662 6.71634 8.76992C5.99786 9.4891 6.04421 10.669 6.81567 11.3318C7.27425 11.7262 7.53912 12.1852 7.53912 12.795C7.53912 14.1522 6.3571 15.0155 4.63207 15.0155C3.22821 15.0155 1.62569 14.5466 0.344341 13.8075C0.0976718 13.6849 -2.3968e-06 13.7081 -2.44431e-06 13.9798L-2.89283e-06 16.545C-2.936e-06 16.792 0.0993268 16.9394 0.271498 17.014C1.55285 17.6304 3.40038 18 5.0029 18C8.82213 18 11.3103 15.6817 11.3103 12.6227C11.3103 10.77 10.4561 9.56201 8.90656 8.54124L8.90491 8.54124ZM63.2934 13.4676C64.0105 12.6457 65.3071 12.6943 65.9604 13.5681L65.9587 13.5681L68.9465 17.5603C69.0976 17.7344 69.0221 17.8349 68.8222 17.8349L65.0484 17.8349C64.8486 17.8349 64.6722 17.7093 64.5731 17.5603L63.1791 15.565C62.7307 14.9223 62.7777 14.0585 63.2934 13.4676ZM58.5477 9.41285C59.5579 9.4124 60.3773 8.59854 60.3773 7.5954L60.3773 0.320638C60.3773 0.122946 60.2786 1.05394e-05 60.0544 1.05002e-05L57.041 9.97336e-06C56.8619 9.94206e-06 56.7181 0.144542 56.7181 0.320638L56.7181 7.5954C56.7181 8.59854 57.5375 9.4124 58.5477 9.41285ZM65.1255 4.62386L68.6816 4.62386L68.68 4.62552C68.9003 4.62552 68.9003 4.69993 68.7777 4.87191L60.3404 14.8469L60.3404 17.3506C60.3404 17.5705 60.2178 17.6697 60.0207 17.6697L57.0377 17.6697C56.8158 17.6697 56.7181 17.5473 56.7181 17.3506L56.7181 14.2251L64.6319 4.89506C64.7562 4.72308 64.9036 4.62386 65.1255 4.62386ZM48.537 4.45872C45.7779 4.45872 43.388 6.12429 42.4371 8.67972C42.036 9.75647 42.8382 10.8994 43.9963 10.8994C44.735 10.8994 45.3784 10.4164 45.5907 9.71678C46.0285 8.27945 47.1148 7.36314 48.537 7.36314C50.352 7.36314 51.6706 8.91459 51.6706 11.2037C51.6706 13.4929 50.377 15.0939 48.537 15.0939C46.9895 15.0939 45.8364 13.9758 45.4887 12.302L42.0811 12.302C42.5892 15.6364 45.33 18 48.5387 18C52.07 18 55.0548 15.0956 55.0548 11.1806C55.0548 7.26555 52.095 4.46037 48.5387 4.46037L48.537 4.45872ZM37.2125 6.50644e-06L40.0706 7.00617e-06C40.2626 7.03973e-06 40.4179 0.153613 40.4179 0.343557L40.4178 17.2683C40.4178 17.4897 40.2693 17.5888 40.0956 17.5888L37.2125 17.5888C36.9888 17.5888 36.8652 17.4649 36.8652 17.2683L36.8652 15.2037C36.0455 16.9496 34.331 17.8349 32.6415 17.8349C29.8685 17.8349 27.3843 15.61 26.9452 12.1696L30.4945 12.1696C30.8651 13.9072 32.1172 14.9576 33.6348 14.9576C35.4745 14.9576 36.8903 13.4331 36.8903 11.0729C36.8903 8.71262 35.4979 7.23767 33.6348 7.23767C32.2157 7.23767 31.0738 8.09324 30.608 9.54341C30.376 10.2685 29.7049 10.769 28.9352 10.769C27.7466 10.769 26.9035 9.61939 27.2708 8.49955C28.1155 5.92293 30.2257 4.33732 32.6915 4.33732C34.356 4.33732 36.0205 5.14829 36.8652 6.86935L36.8652 0.343556C36.8652 0.0991073 37.0138 6.4717e-06 37.2125 6.50644e-06ZM71.6859 9.41285C72.6968 9.41285 73.5172 8.60834 73.5172 7.61346L73.5172 4.945C73.5172 4.74801 73.3926 4.62386 73.1668 4.62386L70.2084 4.62386C70.0147 4.62386 69.858 4.77781 69.858 4.96818L69.858 7.61181C69.858 8.60503 70.6768 9.41119 71.6893 9.41119L71.6859 9.41285ZM78.7523 4.62386L81.6754 4.62386L81.6771 4.62386C81.9001 4.62386 82 4.74867 82 4.9467L82 17.4309C82 17.6522 81.8751 17.752 81.6771 17.752L79.0752 17.752C78.8521 17.752 78.7289 17.6289 78.7289 17.4309L78.679 15.622C77.8617 17.158 76.4484 18 74.5906 18C71.8156 18 69.858 16.3642 69.858 12.8479L69.858 10.9325L73.4753 10.9325L73.4753 12.6499C73.4753 14.5819 74.4425 15.3491 75.8541 15.3491C77.4888 15.3491 78.406 14.061 78.406 12.2289L78.406 4.9467C78.406 4.72371 78.5542 4.62386 78.7523 4.62386ZM14.8016 9.41284C15.8124 9.41284 16.6329 8.60833 16.6329 7.61345L16.6329 4.94499C16.6329 4.748 16.5082 4.62385 16.2824 4.62385L13.3241 4.62385C13.1303 4.62385 12.9736 4.7778 12.9736 4.96817L12.9736 7.6118C12.9736 8.60502 13.7924 9.41118 14.8049 9.41118L14.8016 9.41284ZM21.8679 4.62552L24.791 4.62552L24.7927 4.62385C25.0157 4.62385 25.1156 4.74865 25.1156 4.94665L25.1156 17.4309C25.1156 17.6522 24.9908 17.7521 24.7927 17.7521L22.1908 17.7521C21.9678 17.7521 21.8446 17.6289 21.8446 17.4309L21.7946 15.6223C20.9773 17.1581 19.564 18 17.7062 18C14.9313 18 12.9736 16.3644 12.9736 12.8485L12.9736 10.9334L16.5909 10.9334L16.5909 12.6505C16.5909 14.5823 17.5581 15.3494 18.9697 15.3494C20.6044 15.3494 21.5216 14.0615 21.5216 12.2296L21.5216 4.94831C21.5216 4.72535 21.6698 4.62552 21.8679 4.62552Z" fill="white"/>
</svg>
