<svg width="38" height="38" viewBox="0 0 38 38" fill="none" xmlns="http://www.w3.org/2000/svg">
<g clip-path="url(#clip0_1506_1372)">
<rect x="1" y="1" width="36" height="36" rx="2.13333" fill="#FF8F4D"/>
<rect x="1" y="1" width="12" height="12" fill="white" stroke="#0D0D0E" stroke-width="1.06667"/>
<rect x="1" y="13" width="12" height="12" fill="white" stroke="#0D0D0E"/>
<path d="M1 25H13V37H1V25Z" fill="#FF8F4D" stroke="#0D0D0E"/>
<path d="M6.46415 33.7273C6.06135 33.7273 5.72808 33.6641 5.46435 33.5379C5.39721 33.4975 5.36365 33.4419 5.36365 33.3712V32.4469C5.36365 32.4015 5.37564 32.3788 5.39961 32.3788C5.414 32.3788 5.43558 32.3863 5.46435 32.4015C5.70411 32.5076 5.96784 32.5606 6.25556 32.5606C6.55286 32.5606 6.78543 32.4924 6.95326 32.356C7.12109 32.2197 7.20501 32.0429 7.20501 31.8257C7.20501 31.6237 7.12349 31.4621 6.96045 31.3409C6.80221 31.2146 6.58163 31.1515 6.29871 31.1515C6.03977 31.1515 5.77843 31.207 5.5147 31.3182L5.49312 31.3257C5.47394 31.3257 5.45955 31.3182 5.44996 31.303C5.44037 31.2828 5.43797 31.2601 5.44277 31.2348L5.79522 28.3863C5.80481 28.3106 5.84557 28.2727 5.91749 28.2727H8.30551C8.37743 28.2727 8.4134 28.3106 8.4134 28.3863V29.2954C8.4134 29.3712 8.37743 29.4091 8.30551 29.4091H6.83098L6.73028 30.1742H6.78782C7.33927 30.1742 7.78523 30.3156 8.12569 30.5985C8.46615 30.8762 8.63637 31.2853 8.63637 31.8257C8.63637 32.2096 8.53807 32.5454 8.34147 32.8333C8.14966 33.1212 7.88832 33.3434 7.55745 33.5C7.22658 33.6515 6.86215 33.7273 6.46415 33.7273Z" fill="#0D0D0E"/>
<rect x="13" y="25" width="12" height="12" fill="white" stroke="#0D0D0E"/>
<rect x="25" y="25" width="12" height="12" fill="#E5F1FE" stroke="#0D0D0E"/>
<path d="M29.5175 33.7273C29.4149 33.7273 29.3636 33.6919 29.3636 33.6212C29.3636 33.5858 29.38 33.5429 29.4126 33.4924L30.6014 31.4621C30.7832 31.1591 30.9161 30.9141 31 30.7273C31.0886 30.5404 31.1329 30.3586 31.1329 30.1818C31.1329 29.9545 31.0583 29.7752 30.9091 29.6439C30.7646 29.5126 30.5641 29.4469 30.3077 29.4469C30.0933 29.4469 29.8951 29.4924 29.7133 29.5833C29.6154 29.6237 29.5618 29.6439 29.5525 29.6439C29.5245 29.6439 29.5105 29.6187 29.5105 29.5682V28.6363C29.5105 28.5555 29.5431 28.5025 29.6084 28.4773C29.9161 28.3409 30.2891 28.2727 30.7273 28.2727C31.2634 28.2727 31.6923 28.4141 32.014 28.6969C32.3357 28.9747 32.4965 29.3586 32.4965 29.8485C32.4965 30.1262 32.4406 30.404 32.3287 30.6818C32.2215 30.9545 32.0606 31.2601 31.8462 31.5985L31.2448 32.5682H32.5315C32.6014 32.5682 32.6364 32.6086 32.6364 32.6894V33.6136C32.6364 33.6894 32.6014 33.7273 32.5315 33.7273H29.5175Z" fill="#0D0D0E"/>
<rect x="25" y="13" width="12" height="12" fill="white" stroke="#0D0D0E"/>
<rect x="25" y="1" width="12" height="12" fill="#FF8F4D" stroke="#0D0D0E"/>
<path d="M30.4641 9.72725C30.0613 9.72725 29.7281 9.66412 29.4643 9.53786C29.3972 9.49745 29.3636 9.4419 29.3636 9.37119V8.44695C29.3636 8.40149 29.3756 8.37877 29.3996 8.37877C29.414 8.37877 29.4356 8.38634 29.4643 8.40149C29.7041 8.50755 29.9678 8.56058 30.2556 8.56058C30.5529 8.56058 30.7854 8.4924 30.9533 8.35604C31.1211 8.21967 31.205 8.04291 31.205 7.82574C31.205 7.62372 31.1235 7.4621 30.9605 7.34089C30.8022 7.21462 30.5816 7.15149 30.2987 7.15149C30.0398 7.15149 29.7784 7.20705 29.5147 7.31816L29.4931 7.32574C29.4739 7.32574 29.4596 7.31816 29.45 7.30301C29.4404 7.28281 29.438 7.26008 29.4428 7.23483L29.7952 4.38634C29.8048 4.31058 29.8456 4.27271 29.9175 4.27271H32.3055C32.3774 4.27271 32.4134 4.31058 32.4134 4.38634V5.29543C32.4134 5.37119 32.3774 5.40907 32.3055 5.40907H30.831L30.7303 6.17422H30.7878C31.3393 6.17422 31.7852 6.31563 32.1257 6.59846C32.4661 6.87624 32.6364 7.28533 32.6364 7.82574C32.6364 8.20957 32.5381 8.54543 32.3415 8.83331C32.1497 9.12119 31.8883 9.34341 31.5575 9.49998C31.2266 9.65149 30.8621 9.72725 30.4641 9.72725Z" fill="#0D0D0E"/>
<rect x="13" y="13" width="12" height="12" fill="#786FF4" stroke="#0D0D0E"/>
<path d="M18.3648 21.7273C18.2912 21.7273 18.2543 21.6889 18.2543 21.6123V17.9198L17.4603 18.3028C17.4419 18.3131 17.4281 18.3182 17.4189 18.3182C17.3821 18.3182 17.3636 18.2875 17.3636 18.2262V17.2763C17.3636 17.1946 17.3959 17.1384 17.4603 17.1077L18.9586 16.3263C19.023 16.2906 19.0921 16.2727 19.1657 16.2727H19.4419C19.5109 16.2727 19.5455 16.3136 19.5455 16.3953V21.6123C19.5455 21.6889 19.5109 21.7273 19.4419 21.7273H18.3648Z" fill="white"/>
<rect x="13" y="1" width="12" height="12" fill="white" stroke="#0D0D0E"/>
</g>
<rect x="1" y="1" width="36" height="36" rx="2.13333" stroke="#0D0D0E" stroke-width="1.06667"/>
<defs>
<clipPath id="clip0_1506_1372">
<rect x="1" y="1" width="36" height="36" rx="2.13333" fill="white"/>
</clipPath>
</defs>
</svg>
