<svg width="62" height="62" viewBox="0 0 62 62" fill="none" xmlns="http://www.w3.org/2000/svg">
<g clip-path="url(#clip0_8406_15303)">
<rect x="1" y="1" width="60" height="60" rx="4" fill="#FF8F4D"/>
<rect x="1" y="1" width="20" height="20" fill="white" stroke="#0D0D0E" stroke-width="2"/>
<rect x="1" y="21" width="20" height="20" fill="white" stroke="#0D0D0E" stroke-width="2"/>
<path d="M1 41H21V61H1V41Z" fill="#FF8F4D" stroke="#0D0D0E" stroke-width="2"/>
<path d="M10.6391 55.12C9.9671 55.12 9.4111 55.02 8.9711 54.82C8.8591 54.756 8.8031 54.668 8.8031 54.556V53.092C8.8031 53.02 8.8231 52.984 8.8631 52.984C8.8871 52.984 8.9231 52.996 8.9711 53.02C9.3711 53.188 9.8111 53.272 10.2911 53.272C10.7871 53.272 11.1751 53.164 11.4551 52.948C11.7351 52.732 11.8751 52.452 11.8751 52.108C11.8751 51.788 11.7391 51.532 11.4671 51.34C11.2031 51.14 10.8351 51.04 10.3631 51.04C9.9311 51.04 9.4951 51.128 9.0551 51.304L9.0191 51.316C8.9871 51.316 8.9631 51.304 8.9471 51.28C8.9311 51.248 8.9271 51.212 8.9351 51.172L9.5231 46.66C9.5391 46.54 9.6071 46.48 9.7271 46.48H13.7111C13.8311 46.48 13.8911 46.54 13.8911 46.66V48.1C13.8911 48.22 13.8311 48.28 13.7111 48.28H11.2511L11.0831 49.492H11.1791C12.0991 49.492 12.8431 49.716 13.4111 50.164C13.9791 50.604 14.2631 51.252 14.2631 52.108C14.2631 52.716 14.0991 53.248 13.7711 53.704C13.4511 54.16 13.0151 54.512 12.4631 54.76C11.9111 55 11.3031 55.12 10.6391 55.12Z" fill="#0D0D0E"/>
<rect x="21" y="41" width="20" height="20" fill="white" stroke="#0D0D0E" stroke-width="2"/>
<rect x="41" y="41" width="20" height="20" fill="white" stroke="#0D0D0E" stroke-width="2"/>
<path d="M48.3121 55C48.1361 55 48.0481 54.944 48.0481 54.832C48.0481 54.776 48.0761 54.708 48.1321 54.628L50.1721 51.412C50.4841 50.932 50.7121 50.544 50.8561 50.248C51.0081 49.952 51.0841 49.664 51.0841 49.384C51.0841 49.024 50.9561 48.74 50.7001 48.532C50.4521 48.324 50.1081 48.22 49.6681 48.22C49.3001 48.22 48.9601 48.292 48.6481 48.436C48.4801 48.5 48.3881 48.532 48.3721 48.532C48.3241 48.532 48.3001 48.492 48.3001 48.412V46.936C48.3001 46.808 48.3561 46.724 48.4681 46.684C48.9961 46.468 49.6361 46.36 50.3881 46.36C51.3081 46.36 52.0441 46.584 52.5961 47.032C53.1481 47.472 53.4241 48.08 53.4241 48.856C53.4241 49.296 53.3281 49.736 53.1361 50.176C52.9521 50.608 52.6761 51.092 52.3081 51.628L51.2761 53.164H53.4841C53.6041 53.164 53.6641 53.228 53.6641 53.356V54.82C53.6641 54.94 53.6041 55 53.4841 55H48.3121Z" fill="#0D0D0E"/>
<rect x="41" y="21" width="20" height="20" fill="white" stroke="#0D0D0E" stroke-width="2"/>
<rect x="41" y="1" width="20" height="20" fill="#FF8F4D" stroke="#0D0D0E" stroke-width="2"/>
<path d="M50.1391 15.12C49.4671 15.12 48.9111 15.02 48.4711 14.82C48.3591 14.756 48.3031 14.668 48.3031 14.556V13.092C48.3031 13.02 48.3231 12.984 48.3631 12.984C48.3871 12.984 48.4231 12.996 48.4711 13.02C48.8711 13.188 49.3111 13.272 49.7911 13.272C50.2871 13.272 50.6751 13.164 50.9551 12.948C51.2351 12.732 51.3751 12.452 51.3751 12.108C51.3751 11.788 51.2391 11.532 50.9671 11.34C50.7031 11.14 50.3351 11.04 49.8631 11.04C49.4311 11.04 48.9951 11.128 48.5551 11.304L48.5191 11.316C48.4871 11.316 48.4631 11.304 48.4471 11.28C48.4311 11.248 48.4271 11.212 48.4351 11.172L49.0231 6.65998C49.0391 6.53998 49.1071 6.47998 49.2271 6.47998H53.2111C53.3311 6.47998 53.3911 6.53998 53.3911 6.65998V8.09998C53.3911 8.21998 53.3311 8.27998 53.2111 8.27998H50.7511L50.5831 9.49198H50.6791C51.5991 9.49198 52.3431 9.71598 52.9111 10.164C53.4791 10.604 53.7631 11.252 53.7631 12.108C53.7631 12.716 53.5991 13.248 53.2711 13.704C52.9511 14.16 52.5151 14.512 51.9631 14.76C51.4111 15 50.8031 15.12 50.1391 15.12Z" fill="#0D0D0E"/>
<rect x="21" y="21" width="20" height="20" fill="#786FF4" stroke="#0D0D0E" stroke-width="2"/>
<path d="M29.9736 35C29.8456 35 29.7816 34.94 29.7816 34.82V29.036L28.4016 29.636C28.3696 29.652 28.3456 29.66 28.3296 29.66C28.2656 29.66 28.2336 29.612 28.2336 29.516V28.028C28.2336 27.9 28.2896 27.812 28.4016 27.764L31.0056 26.54C31.1176 26.484 31.2376 26.456 31.3656 26.456H31.8456C31.9656 26.456 32.0256 26.52 32.0256 26.648V34.82C32.0256 34.94 31.9656 35 31.8456 35H29.9736Z" fill="white"/>
<rect x="21" y="1" width="20" height="20" fill="white" stroke="#0D0D0E" stroke-width="2"/>
</g>
<rect x="1" y="1" width="60" height="60" rx="4" stroke="#0D0D0E" stroke-width="2"/>
<defs>
<clipPath id="clip0_8406_15303">
<rect x="1" y="1" width="60" height="60" rx="4" fill="white"/>
</clipPath>
</defs>
</svg>
